<?xml version="1.0" encoding="utf-8"?>
<!-- Generator: Adobe Illustrator 22.0.1, SVG Export Plug-In . SVG Version: 6.00 Build 0)  -->
<svg version="1.1" id="Layer_1" xmlns="http://www.w3.org/2000/svg" xmlns:xlink="http://www.w3.org/1999/xlink" x="0px" y="0px"
	 viewBox="0 0 47.7 204.5" style="enable-background:new 0 0 47.7 204.5;" xml:space="preserve">
<style type="text/css">
	.st0{fill:#FFFFFF;}
	.st1{fill:#545454;}
</style>
<g id="UtgGv8_1_">
	<g>
		<path class="st0" d="M4.7,0.5C-0.2-1.2,0,1.6,0,4.5c0,65.1,0,130.2,0,195.3c0,1.2,0.2,2.3,0.5,4.7c16-23.9,31.2-46.8,47.1-70.5
			c-15,0-28.8,0-43,0C4.7,89.1,4.7,44.8,4.7,0.5z"/>
		<path class="st1" d="M4.7,0.5c0,44.2,0,88.6,0,133.4c14.2,0,28,0,43,0c-15.9,23.8-31.1,46.6-47.1,70.5c-0.3-2.4-0.5-3.6-0.5-4.7
			C0,134.7,0,69.6,0,4.5C0,1.6-0.2-1.2,4.7,0.5z"/>
	</g>
</g>
</svg>
