<?xml version="1.0" encoding="utf-8"?>
<!-- Generator: Adobe Illustrator 22.0.1, SVG Export Plug-In . SVG Version: 6.00 Build 0)  -->
<svg version="1.1" id="Layer_1" xmlns="http://www.w3.org/2000/svg" xmlns:xlink="http://www.w3.org/1999/xlink" x="0px" y="0px"
	 viewBox="0 0 533.7 669.8" style="enable-background:new 0 0 533.7 669.8;" xml:space="preserve">
<style type="text/css">
	.st0{fill:#545456;}
</style>
<g>
	<g>
		<path class="st0" d="M195.3,281.3l-0.1,0.1c-1.4,0.3-2.5,1-3.4,2.1c-0.1,0.1-0.2,0.2-0.4,0.3c-0.1,0.1-0.2,0.1-0.2,0.2
			c-0.3,0.3-0.8,0.7-1.2,1.3c-0.6,0.9-1.2,1.9-1.7,2.8l-0.7,1.3c-0.1,0.2-0.2,0.4-0.3,0.5c-0.3,0.4-0.5,0.8-0.7,1.2
			c-1.3,2.5-2.6,5-3.9,7.5c-0.8,1.5-1.6,3.2-2.5,5.2c-0.3,0.6-0.6,1.2-0.8,1.8c-0.2,0.5-0.5,1-0.7,1.6c-0.3,0.7-0.7,1.4-1,2.1
			c-0.5,1.1-1,2.1-1.5,3.2l-0.5,1.1c-1.1,2.4-2.2,4.9-3.2,7.4c-0.9,2.3-1.7,4.7-2.7,7.9c-0.1,0.3-0.2,0.6-0.3,1
			c-0.5,1.7-1.1,3.6-1.1,5.7c0,0.3-0.1,0.7-0.3,1.2c-0.1,0.4-0.3,0.9-0.4,1.5c-0.1,0.5-0.2,1.1-0.3,1.6c-0.4,1.9-0.8,3.8-0.7,6
			c0,0.2-0.1,0.4-0.1,0.6c0,0.5,0,1-0.1,1.5v0.6c0,0.1,0,0.3,0,0.4s0,0.1,0,0.1c0,0.2-0.1,0.4-0.2,0.7c-0.3,0.9-0.7,2-0.4,3.5
			c0,0.1,0,0.4,0,0.7v0.4c0,0.2,0,0.3-0.1,0.5c-0.1,0.5-0.1,1-0.1,1.7c0.1,0.9,0.3,1.8,0.5,2.6l0.1,0.3c0,0.2,0.1,0.4,0.2,0.7
			l-0.1,0.5c-0.3,1.1,0,2,0.2,2.3c0.3,0.7,0.6,1.4,0.9,2.1l0.2,0.6c0.1,0.3,0.2,0.6,0.4,0.9c0.2,0.4,0.6,0.9,1.1,1.2
			c0.2,0.3,0.3,0.6,0.5,0.9c0.1,0.3,0.3,0.5,0.4,0.8c0.2,0.3,0.4,0.7,0.5,0.9c0.9,2.5,2.6,4.2,3.8,5.2c0.6,0.5,1.3,0.9,2,0.9
			l0.1,0.1c0.3,0.3,0.6,0.6,0.9,0.8l0.3,0.2c0.3,0.2,0.6,0.5,0.9,0.7c0,0,0.1,0.1,0.2,0.1c0.2,0.2,0.5,0.4,1,0.6l0.3,1.7l2.6-0.7
			c0.2,0,0.4-0.1,0.8-0.2c1.1,0.6,2.1,0.6,2.8,0.4c0.1,0,0.3,0.1,0.4,0.1c0.6,0.2,1.4,0.5,2.2,0.6c0.2,0,0.5,0,0.7,0
			c0.6,0,1.1-0.1,1.5-0.2c0.2,0,0.3-0.1,0.5-0.1h0.2c0.2,0,0.5-0.1,0.7-0.1s0.5-0.1,0.8-0.1c0.2,0,0.6-0.1,0.7-0.1h0.2
			c1.1,0.2,2.5,0.4,4.1-0.2l0,0c0.9,0.1,1.5-0.3,2-0.7c0.4,0,0.9-0.2,1.4-0.4h1.9v-1.2c0.5,0,0.9-0.1,1.2-0.1l0.3-0.1
			c0.2,0,0.5,0,0.8,0c0.5,0,1,0,1.6-0.1c0.3,0,0.5-0.1,0.7-0.2l0,0l0,0c0.8-0.2,1.5-0.5,2.2-0.8c0.1-0.1,0.3-0.2,0.4-0.2l0.5-0.2
			c0.4-0.1,0.8-0.3,1.1-0.4l2.9-1.2c1.1-0.4,1.6-1.4,2-2.1c0,0,0-0.1,0.1-0.1c0.5-0.3,1-0.6,1.3-0.8c0.1-0.1,0.3-0.2,0.3-0.3
			c0.5,0,1.4-0.3,2-1.2c0.1-0.1,0.2-0.3,0.4-0.4c0.4-0.4,0.7-0.7,1-0.9c1.1-0.8,1.8-1.9,1.9-3c0.8-0.4,1.7-1,2.1-2
			c0.8-0.5,1.4-1.1,1.9-1.6c0.3-0.3,0.7-0.6,1.1-1c1-0.9,2.2-1.9,3-3.3c0.2-0.3,0.4-0.5,0.6-0.7l0.4-0.3c0.7-0.5,1.6-1.2,2.3-2.2
			c0.5-0.7,1-1.3,1.6-2c0.7-0.8,1.4-1.7,2.1-2.6c1.2-1.8,2.3-3.7,3.3-5.5l0.2-0.3c0.6-1.1,1.2-2.4,1.9-3.9c0,0,0,0,0-0.1
			c0.8-0.4,1.7-1.2,1.8-2.3c0-0.1,0-0.3,0-0.4c0-0.3,0.1-0.8,0.1-1.2c0.4-0.4,0.8-1,0.9-1.8c0.1-0.6-0.1-1.2-0.4-1.7
			c0.1-0.3,0.1-0.5,0.1-0.7c0.6-0.4,1.1-1,1.3-1.7c0.2-0.8,0.4-1.5,0.5-2.3c0.1-0.4,0.1-0.8,0.1-1.1c0-0.1,0-0.2,0-0.3
			c0-0.5,0.1-1,0.1-1.5c0.1-1.3,0.2-2.7,0.2-4.2c0-0.1,0-0.4,0-0.6c0-0.3,0.1-0.6,0.1-1c0-0.2,0.1-0.4,0.1-0.7l0.5-0.1l-0.1-2.3
			c0-0.1,0-0.1,0-0.2c0.1-0.6,0.2-2.1-1-3.4c0-0.1-0.1-0.1-0.1-0.2c-0.1-0.2-0.2-0.4-0.3-0.6l-0.4,0.2l0,0l0.4-0.2
			c0-0.1-0.1-0.2-0.2-0.3c0.1-0.5,0.2-1.1,0.1-1.8c0-0.1,0-0.1,0-0.2c-0.1-1.1-0.4-2-1-2.6c0-0.1,0-0.2,0-0.2
			c-0.1-0.8-0.2-1.8-0.8-2.9l0.9-1.6l-2.3-1.1c0.2-1.6-0.5-2.6-1.2-3.1c0-0.4,0-0.8,0-1.2v-0.4c0-1.8-1.2-2.2-3.5-3.1
			c-1.5-0.6-4-1.5-5-2.1c-1-0.5-1.6-1-2.3-1.5c-1.2-0.9-2.4-1.8-4.9-2.5c-5.4-1.6-8.2-0.2-9.3,0.3h-0.1c-0.6,0.2-1.2,0.4-1.9,0.6
			l-0.4,0.1c0-0.2,0.1-0.5,0-0.7c0-0.5,0-1,0-1.6c0.1-1.7-0.9-3.1-2.7-3.4c-0.3-0.1-0.6-0.2-0.9-0.3h-0.1c-0.4-0.1-0.7-0.3-1.1-0.4
			l-0.3-0.1c-0.3-0.1-0.7-0.3-1.1-0.4c-0.3-0.1-0.6-0.2-0.7-0.2c-0.4-0.6-0.9-1.1-1.3-1.6c-0.1-0.1-0.3-0.3-0.4-0.4
			c-0.6-0.7-2.5-2.7-5.3-2c-0.8,0.2-1.5,0.6-2.1,0.9c-0.2,0.1-0.5,0.2-0.7,0.3c-0.2,0.1-0.4,0.2-0.6,0.3c-0.1,0-0.1,0.1-0.2,0.1
			C196.6,279.2,195.6,280.8,195.3,281.3z M197,323.8c0.9-1.3,1.3-2.8,1.3-4.6c0.6-1,0.9-2,1.2-2.8c0.1-0.5,0.3-1,0.5-1.3
			c0.4-0.8,0.5-1.5,0.3-2.3c0-0.1,0.1-0.1,0.1-0.2c0.1-0.1,0.1-0.3,0.2-0.4c0.1-0.2,0.2-0.3,0.2-0.5c0.1-0.1,0.1-0.2,0.2-0.4
			c0.6,0.1,1.1,0.2,1.7,0.4c0.5,0.1,1.1,0.2,1.6,0.3c0.7,0.1,1.4,0.2,2,0.3c0.7,0,1.3,0.1,2,0.1c0.6,0,1.3,0,1.9,0.1
			c0.4,0,0.7,0.1,1.1,0.1c0.5,0.1,1.1,0.1,1.7,0.1c1.4,0,2.4,0,3.5-0.1c1.2-0.1,1.9-0.9,2.3-1.3l0.1-0.1c0.4-0.4,0.8-0.8,1.1-1.2
			l0,0c0.5,0.1,1.1,0.2,1.7,0.3c1.8,0.2,3.8,0.4,5.8,0.6c0.6,0.1,1.2,0.1,1.7,0.1c0.6,0,1.2,0.1,1.8,0.1c0.1,0.1,0.3,0.4,0.4,0.5
			l0.2,0.2c0.8,1.1,1.1,2.5,1.4,4.1l0.1,0.5c0.5,2.2,0.4,4.4,0.3,6.7v0.1c-0.1,1.8-0.2,3.4-0.6,4.9c-0.6,1.7-1.1,3.1-1.9,4.3
			c-0.1,0.2-0.2,0.4-0.3,0.6v0.1c-1.1,0.6-2.3,1.8-2.8,2.4c-1.6,2.3-3.3,4.9-5.1,7.4l-0.2,0.3c-1.2,1.7-2.3,3.3-3.6,4.7
			c-1.2,1.4-2.5,2.6-3.9,4l-0.7,0.6c-1.5,1.4-3.3,2.7-5.9,4.1c-2.7,1.5-5.4,2-8.1,1.7c-0.2,0-0.6-0.1-1.2-0.9
			c-0.1-0.2-0.2-0.4-0.3-0.5c-0.8-1.2-1.7-1.8-2.9-1.8c-0.2-0.2-0.5-0.4-0.7-0.6c-0.1-1-0.3-2-0.4-3l0,0c0-0.3,0-0.9-0.3-1.5
			c-0.1-0.2,0-0.4,0.3-1.2c0.1-0.2,0.1-0.3,0.2-0.5l0.3-0.9L195,347c-0.1-0.3-0.2-0.5-0.3-0.8s-0.2-0.5-0.3-0.7
			c0-0.1,0.1-0.3,0.1-0.4l0.1-0.5c0.2-0.7,0.4-1.4,0.4-2.3c0-0.3,0.1-1,0.2-1.5c0.1-0.7,0.2-1.2,0.1-1.6l0,0l-0.1-3.8
			c0-0.5-0.1-1-0.4-1.4c-0.1-0.2-0.1-0.5,0.3-1.5l0.2-0.5c0.2-0.6,0.1-1.2,0.1-1.6c1.5-1.8,1.4-3.9,1.2-5.4
			C196.6,324.4,196.7,324.2,197,323.8z"/>
		<path class="st0" d="M290.7,304.9l0.1-0.3c0-0.3,0.1-0.5,0.3-0.8l0.3-0.5c0.3-0.3,0.7-0.6,1.3-0.6l0.8-0.1l0.6-0.6
			c0.1-0.1,0.3-0.2,0.5-0.3l0.4-0.2l0.5-0.6c0.9-1,1.7-2,2.6-3c0.7-0.1,1.3-0.4,1.7-0.7c0.6-0.4,0.9-0.8,1.1-1.2
			c0.2,0,0.5-0.1,0.7-0.2c1-0.5,1.9-0.7,2.7-0.7c0.6,0,1.3-0.2,1.8-0.5c0.3-0.2,0.5-0.3,0.8-0.5c0.2-0.1,0.4-0.3,0.4-0.3
			c1.2-0.3,2.4-0.6,4.1-0.8c0.8-0.1,1.9-0.3,2.9-0.9c0.7,0.2,1.7,0.4,2.8,0c1-0.3,1.9-0.8,2.7-1.2c0.2-0.1,0.4-0.2,0.6-0.3
			c0.7,0,1.5-0.2,2.3-1c1.1-0.1,2.2-0.5,3.2-1.3c0.5-0.3,0.6-0.4,0.6-0.4c0.9,0.2,1.8-0.1,2.2-0.2c0.5-0.2,0.9-0.4,1.4-0.6
			c0.2-0.1,0.3-0.2,0.5-0.2c1.2,0.1,2.2-0.3,2.8-0.6c0.1-0.1,0.3-0.1,0.4-0.2c1.1-0.3,2.2-0.7,3.3-1.1c0.4-0.1,0.8-0.3,1.2-0.4
			c0.1,0,0.1,0,0.2,0s0.1,0,0.2,0h0.1c0.4,0,1.1,0,1.8-0.3c0.2-0.1,0.4-0.2,0.6-0.2c0.9-0.4,1.3-0.5,1.7-0.4
			c1.1,0.3,1.9-0.1,2.3-0.4c0.3-0.2,0.6-0.3,1-0.5s0.8-0.4,0.9-0.4c0.7,0,1.4-0.1,2-0.3c0.4-0.1,0.8-0.2,1.2-0.4
			c0.4-0.1,0.7-0.2,1-0.3c0.3-0.1,0.6-0.1,0.9-0.1c0.4,0,0.9-0.1,1.5-0.2c0.8-0.2,1.5-0.4,2.2-0.6c1-0.3,1.9-0.5,2.8-0.7
			c0.3,0,0.5-0.1,0.8-0.2l8.9-2.7l-8.8-2.2c-0.5-0.1-1-0.3-1.4-0.4c-1.1-0.3-2.2-0.6-3.4-0.8l0,0c-1.6-0.2-3.1-0.3-4.6-0.4
			c-0.6,0-1.3-0.1-1.9-0.1c-0.4,0-0.7-0.1-1.1-0.1c-0.1,0-0.2,0-0.3-0.1c-0.3-0.1-0.8-0.2-1.3-0.2c-0.9,0-1.8,0-2.6,0.1
			c-0.5,0-1.1,0-1.6,0.1c-0.8-0.4-2-0.6-3.5-0.8c-0.1,0-0.3,0-0.4,0l-0.4-0.5l-2.7,0.2c-1.3,0.1-2.6,0.2-3.9,0.4
			c-0.2,0-0.5,0.1-0.6,0.1c-0.6-0.2-1.2-0.2-1.5-0.2l-1.2,0.1c-1.1,0.1-2.2,0.1-3.3,0.3c-2.4,0.3-4.8,0.6-7.2,0.9l-3.6,0.4
			c-5.1,0.6-10.1,1.9-14.5,3c-3.5,0.9-7.1,1.9-10.4,2.9c-0.2,0.1-0.5,0.1-0.7,0.2c-1.1,0.3-2.4,0.6-3.6,1.6h-0.1
			c-0.2,0.1-0.4,0.1-0.6,0.2c-0.5,0.2-1.2,0.4-1.8,0.7c-0.5,0.2-1,0.5-1.4,0.8c-0.3,0.2-0.6,0.3-0.8,0.5c-0.1,0-0.2,0.1-0.3,0.1
			c-0.5,0.1-1.1,0.3-1.7,0.7c-0.6,0.4-1.1,0.9-1.6,1.4c-0.2,0.2-0.3,0.3-0.5,0.5c-0.6,0.5-1.6,1.4-1.9,2.8c-1.2,0.6-2.5,1.1-3.7,1.6
			l-0.2,0.1c-2.7,0.2-4.2,2.2-5,3.3c-0.6,0.8-0.7,1.7-0.7,2.3c0,0.1,0,0.2,0,0.2c-0.6,2.7-1,6.6,2.4,9.6c0.7,0.6,1.5,1.3,2.3,1.9
			v0.2l0.2,0.4c0.1,0.2,0.2,0.4,0.2,0.7l0.3,1.5c-0.2,1.3-0.5,2.5-0.8,4c-0.2,0.8-0.4,1.7-0.7,2.6c-0.1,0.3-0.1,0.5-0.1,0.8v0.1
			c-0.4,0.8-0.5,1.9-0.7,3.9c0,0.3-0.1,0.6-0.1,0.7c-0.3,1.4-0.9,2.7-1.6,4.2c-0.2,0.5-0.5,1-0.7,1.6c-0.1,0-0.1,0.1-0.2,0.2
			l-0.5,0.5l-0.2,0.7c-0.1,0.2-0.2,0.4-0.3,0.6l-0.2,0.3l-0.1,0.3c-0.3,0.7-0.5,1.3-0.9,1.9c-0.6,0.9-1.1,1.9-1.6,3l-0.2,0.4
			c-0.2,0.9-0.5,1.8-0.9,2.5l-0.2,0.5v0.5c0,0.5-0.1,0.9-0.3,1.3l-0.1,0.2l-0.1,0.2c0,0.1-0.1,0.2-0.1,0.3l-0.1,0.4
			c-0.9,2.6-1.9,5.4-3,8.7c-0.1,0.3-0.2,0.5-0.3,0.8c-0.4,1.1-0.8,2.2-1,3.4c-0.3,1.9-0.5,3.8-0.7,5.6c-0.1,0.7-0.2,1.4-0.2,2.1
			c-0.1,0.2-0.2,0.3-0.3,0.5c-0.3,0.5-0.7,1.2-1,2c-0.7,2.3-1.2,4.1-1.5,5.8c-0.3,1.3-0.4,2.6-0.6,3.8c-0.1,0.5-0.1,0.9-0.2,1.4
			c-0.1,0.5,0,1,0.1,1.3l0.4,1.6c0.3,1.1,0.5,2.3,0.8,3.4c0.4,1.7,1.6,2.7,3.3,2.8h0.6c0.3,0.3,0.7,0.5,1.2,0.7l4,1.6l-0.5-3.5
			c0.4-0.1,0.9-0.4,1.3-0.9l0.2-0.3c0.1-0.1,0.2-0.2,0.2-0.3c0.3-0.1,0.5-0.3,0.7-0.5l0,0c1.1,0.8,2.6,0.9,3.8,0.3
			c0.7-0.3,1.3-0.6,1.9-0.8c0.3-0.1,0.7-0.2,1.2-0.3c0.2,0,0.4-0.1,0.6-0.1l2-0.5l-0.1-2.1c0-0.2,0-0.4-0.1-0.5v-0.1
			c0.1-0.3,0.2-0.6,0.2-0.9c0.1-0.5,0.3-0.9,0.4-1.4c0.5-2.4,1-4.9,1.5-7.3c0.6-2.6,1.1-5.3,1.7-7.9c0.1-0.5,0.2-1,0.4-1.5
			c0.2-0.5,0.3-1.1,0.4-1.6c0.1-0.4,0.2-0.8,0.3-1.2c0.3-1,0.7-2.2,0.7-3.5c0-0.1,0-0.2,0-0.2c1.3-0.5,1.9-1.7,2-2.8
			c0.2-1.4,0.5-3.2,0.7-5c0.2-2.1,0.6-4.4,1.9-6.3c0.3-0.5,0.5-1,0.5-1.6c0-0.1,0-0.2,0-0.2c0.3-0.1,0.5-0.3,0.6-0.4
			c0.7-0.2,1.3-0.6,1.6-0.9h0.1c0.3-0.1,0.6-0.2,1-0.4c0.3-0.1,0.5-0.3,0.6-0.4c0.2-0.1,0.4-0.2,0.5-0.3c0.6,0.1,1.3,0,2-0.7
			c0.2-0.2,0.5-0.3,0.7-0.5c0.5-0.4,1-0.7,1.4-0.9c0.9-0.4,1.9-0.8,3-1.2c0.3-0.1,0.6-0.2,0.9-0.3c0.2,0,0.4-0.1,0.7-0.1
			c0.3-0.1,0.9-0.2,1.5-0.7c0.7-0.5,1.6-0.8,2.7-1.2c0.4-0.1,0.8-0.2,1.2-0.4c0.3-0.1,0.8-0.3,1.4-0.7l1.9,0.7l0.3-2.7
			c0,0,0.1,0,0.1-0.1l0.4-0.2c0.4-0.2,0.8-0.3,1.3-0.5c0.6-0.2,1.3-0.3,2-0.5c0.4-0.1,0.9-0.2,1.3-0.3c0.5-0.1,1-0.2,1.5-0.3
			c0.8-0.2,1.3-0.6,1.7-0.9c0.2-0.2,0.4-0.4,0.5-0.6l0.1-0.1c1.2-0.9,1.6-2.9,1.5-3.8c-0.1-1-0.7-1.9-1.5-2.3
			c-0.1,0-0.2-0.1-0.2-0.2c-0.6-0.4-1.7-1.2-3.3-1c-0.4,0.1-0.9,0-1.4,0h-0.2c-1.2-0.8-2.4-0.8-2.9-0.7c-0.3,0-0.6,0-0.9,0
			c-0.4,0-0.9,0-1.3,0.1c-2.4,0.2-5.5,0.5-8.6,1.3l-1.5,0.4c-1.1,0.3-2.1,0.5-3.2,0.8c0.1-0.3,0.2-0.5,0.2-0.8
			c0.2-0.9,0.4-2.4-0.1-3.9c0.4-0.5,0.6-1.1,0.5-1.9v-0.1c0-0.4-0.1-1.1-0.4-1.8c0.1-0.2,0.1-0.4,0.2-0.5L290.7,304.9z"/>
	</g>
	<g>
		<path class="st0" d="M207.8,231.3l0.2-0.1c0.2-0.1,0.5-0.3,0.7-0.4c1.1-0.7,2-1.3,3-1.4c1.6-0.2,1.7-0.1,2.5,1.4
			c0.1,0.2,0.3,0.6,0.4,0.9c0.5,1.3,1.4,3.5,3.9,4.2c0.3,1,0.6,2,0.8,3.1c0.2,1,0.5,1.9,0.8,2.9c0.3,1.1,1.2,4.1,5.2,4.4l1.8,0.2
			l0.7-1.6c0.1-0.3,0.3-0.6,0.4-0.9c0.3-0.6,0.6-1.3,0.9-2c2.2-6,3.7-11.6,4.6-17.1c0.5-3.3,2.2-5.9,4.9-7.7c1.4-0.9,2.7-1.8,4-2.8
			c3.5-2.5,6.7-4.8,10.5-6.2c2.5-0.9,4.5-2.3,5.8-4.3c0.3-0.5,0.7-0.7,0.8-0.8c4.8-2.5,8.4-6.3,11.9-9.9c1.4-1.5,3-2.8,4.6-4.2
			c2.7-2.3,5.6-4.8,7.8-8c1.3-1.8,2.7-3.2,4.3-4.3c0.8-0.5,1.6-1.3,2.3-2.4c1.6-2.4,3.6-4.5,5.6-6.8c1.5-1.6,3-3.3,4.4-5
			c0.4-0.5,0.8-0.9,1.2-1.2c2.2-1.5,4-3.4,5.7-5.1c1.5-1.5,2.9-3,4.5-4.2l0.5-0.3l0.3-0.5c1.3-2.4,3.5-4,5.9-5.7
			c0.2-0.1,0.8-0.4,1.2-0.6c1.7-0.8,3.4-1.6,4.1-3.1c1.1-2.3,3-4.1,5.1-6c0.7-0.6,1.3-1.2,2-1.8c1.2-1.2,2.6-2.3,4-3.4
			c1.6-1.2,3.2-2.5,4.7-4c0.9-0.9,1.2-1.8,1.4-2.3v-0.1l10.6-8l0.6-1.4c0.3-0.6,0.5-1.2,0.8-1.8c0.2-0.5,0.8-0.8,1.7-1.4
			c1-0.6,2.2-1.3,3-2.5c0.5-0.7,0.9-1.5,1.2-2.1c0.6-1.2,1-2,1.6-2.2c2.7-1.1,3.9-3.3,4.8-5c0.2-0.3,0.3-0.6,0.5-0.9
			c2.5-4.2,4.7-8,7.3-11.4c1.6-2,2.3-4,3.1-6l0.1-0.3c1.1-3,1.1-5.9,1-8.7c0-0.7,0-1.4,0-2c0-1.6-0.7-3.5-1.8-4.7
			c-0.4-0.4-0.7-0.8-1-1.2c-2.5-2.9-5-5.9-9.1-7.6c-3.3-1.4-6.4-3.1-9.1-5.1c-2.2-1.6-4.1-2.8-6.4-3.6c-1.1-0.4-2.3-0.8-3.4-1.2
			c-5.7-2-11.5-4.1-17.8-4.8c-1.2-0.1-2.5-0.5-3.8-0.8c-0.7-0.2-1.3-0.3-2-0.5c-0.3-0.1-0.6-0.1-0.9-0.2c-0.8-0.2-1.7-0.4-2.6-0.5
			c-3.1-0.4-6.2-0.8-9.3-1.1c-1.6-0.2-3.3-0.4-4.9-0.6l-10.1-1.2c-6.3-0.8-12.6-1.5-18.9-2.3c-11-1.3-22.1-1.3-30.5-1.2
			c-1.5,0-3.1,0-4.7-0.1c-0.3,0-0.5,0-0.8,0c-0.3-0.9-0.4-1.8-0.6-2.8c-0.2-1.4-0.4-2.8-1.1-4.2c-0.8-1.9-1.7-3.6-2.7-5.5
			c-0.4-0.8-0.8-1.6-1.3-2.5l-0.8-1.6l-1.6,0.2c-0.1,0-0.2-0.1-0.3-0.1c-0.8-0.4-2.1-1-3.8-0.6c-0.3,0-1.1-0.3-1.7-0.5
			c-0.6-0.2-1.2-0.4-1.9-0.6l-3.7-1l0.6,3.8c0.7,4.4,0.1,8.6-0.4,13c-0.1,0.8-0.2,1.6-0.3,2.3c-0.1,0.4-0.1,0.7-0.1,0.8
			c-0.3,0.1-1,0.3-1.3,0.4c-3.1,0.9-6.2,1.9-9.3,3.1c-1.6,0.6-2.8,1.8-3.9,2.9c-0.9,1-1.4,2.3-1.4,3.7c0.1,1.4,0.7,2.6,1.8,3.4
			c1.2,0.9,2.6,1.8,4.3,2.5c0.9,0.4,1.7,0.6,2.6,0.8c0.7,0.2,1.4,0.4,2,0.6c0.9,0.4,1.1,0.6,1.1,0.6s0.1,0.3,0,1.4
			c-0.6,6.7-1.3,13.3-1.9,20c-0.8,8.1-1.4,16.4-2,24.4c-0.9,11.8-1.8,24.1-3.3,36l-0.2,1.8c-0.8,6.4-1.7,12.9-1.2,19.6
			c0.3,5.1,0.5,10.3,0.7,15.3c0.1,3.2,0.2,6.4,0.4,9.6c0.1,1.2,0.2,2.4,0.4,3.5c0.2,1.2,0.3,2.4,0.3,3.6c0,2.6,0,5.3,0,7.9
			c0,2.8-0.1,5.6,0,8.4c0,0.6-0.2,1.4-0.5,2.3c-0.5,1.5-1,3.3-0.5,5.3c0.4,1.7,0.3,2.3-0.3,3c-0.8,0.9-1.4,1.8-2.1,2.7
			c-0.6,0.9-1.2,1.8-1.9,2.5c-2.6,2.6-3.3,5.7-3.9,8.4c-0.1,0.4-0.2,0.9-0.3,1.3l-0.5,2l1.9,0.9
			C204.4,233.4,206.6,232.1,207.8,231.3z M240.4,98.6v-0.8c0.2-3.6,0.5-7.2,0.7-10.7c0.7-10.5,1.5-21.3,1.3-32c0-0.2,0-0.5,0.1-0.8
			c0.6-0.3,1.3-0.4,2.4-0.5c9.5-0.6,17.4-0.2,24.7,1.2c0.2,0,0.5,0.1,0.7,0.1c0.7,0.2,1.6,0.3,2.5,0.4c4.9,0.3,10.1,0.6,15.3,0.8
			c7.6,0.3,16.6,0.8,25.7,1.7c7.8,0.8,15.8,1.9,23.8,3.5c0.2,0,0.6,0.2,0.9,0.4c0.3,0.1,0.6,0.3,0.9,0.4c0.6,0.2,1.2,0.5,1.8,0.7
			c1.5,0.6,3,1.2,4.6,1.7c1.9,0.6,1.9,0.9,2,1.6c0.2,1.4,1,2.4,1.7,3.2c0.1,0.1,0.2,0.3,0.4,0.4c2.2,2.9,2.4,5.9,0.5,9.4
			c-4,7.4-8.2,13.7-12.6,19.2c-5.7,7-12.4,13.7-20,19.9c-3.7,3-7.4,6.2-10.9,9.3c-1.6,1.4-3.2,2.8-4.8,4.1c-0.1,0.1-0.2,0.1-0.2,0.2
			l-4.6,3.4c-3.3,2.5-6.6,5-10,7.4c-2.4,1.8-4.9,3.7-7.6,5.9c-1.3,1-2.6,2-3.9,3c-3.3,2.6-6.8,5.2-10,8.2c-1.3,1.2-2.7,2.3-4.1,3.4
			c-2.1,1.6-4.2,3.3-6.1,5.4c-0.9,1-1.9,1.9-3,2.9c-1.3,1.1-2.6,2.3-3.8,3.7c-1.5,1.7-3.5,3.1-5.5,4.7c-1,0.7-2,1.5-3,2.3
			c-0.4,0.3-0.7,0.6-1,0.9c0,0,0,0,0-0.1c0.4-12.7,0.8-27.6,0.2-42.3C238.8,126.6,239.6,112.4,240.4,98.6z"/>
		<path class="st0" d="M77.5,157.6c2.2,2.2,4.3,4.5,6.3,6.8l1.2,1.4c0.7,0.8,1.4,1.6,2,2.4c1.1,1.4,2.3,2.8,3.6,4.1
			c1.1,1.1,2.3,2,3.4,2.9c2,1.5,3.9,3,5,5.1c0.4,0.7,0.9,1.1,1.2,1.2c1,0.7,1.9,1.4,2.9,2.2c2.2,1.6,4.4,3.2,6.5,4.9
			c1.7,1.4,3.4,3,5.1,4.6c0.5,0.5,1,0.9,1.5,1.4c1.2,1.1,2.3,2.2,3.5,3.3c1.6,1.5,3.1,3,4.7,4.5c1.3,1.2,2.7,2.4,4.1,3.7
			c2.3,2,4.6,4.1,6.7,6.2c4.8,4.9,9.7,10,14.4,14.9c3.1,3.2,6.2,6.4,9.3,9.6c0.1,0.1,0.1,0.2,0.2,0.3c1.4,2,3,2.6,5,1.9l1.7-0.6
			v-1.8c0-0.8-0.2-1.6-0.4-2.2c1.7,0.5,3.5,1,5.4,0.8c0.8-0.1,1.1,0.2,2.2,1.3c0.8,0.9,1.8,1.9,3.3,2.5c0.8,0.3,1.5,0.2,1.7,0.1
			l1.3-0.1l0.6-1.2c1.3-2.5-0.1-4.5-0.8-5.4l-0.2-0.3c-1-1.4-2-2.9-2.9-4.3c-2.6-3.9-5.3-7.8-8.2-11.6c-16.3-20.9-35.7-42-59.5-64.6
			c-6.3-6-12.9-12-19.2-17.8c-3.5-3.2-7-6.4-10.5-9.6c-0.3-0.3-0.6-0.6-0.9-0.8c-0.8-0.7-1.4-1.2-1.7-1.7c0.3-0.6,0.9-1,1.9-1.8
			l0.1-0.1c1.4-1.1,2.9-2.3,4.2-3.4c2.9-2.4,5.6-4.6,8.6-6.5c2.1-1.3,3.7-3.3,5-4.9c1.8-2.3,3.8-3.9,6.1-5c3-1.4,5-3.6,6.8-5.5
			c4.1-4.4,7.8-8.3,11.7-12c2.2-2.1,4.2-3.6,6.1-4.5c2.4-1.2,4.3-2.8,5.9-5.4c1.6-2.5,3.7-4.8,6.7-7.7c5.4-5.1,10.2-9.8,14.7-14.3
			c3.8-3.7,7.4-7.6,11-11.4l0.1-0.1c1-1.1,1.9-2.3,2.6-3.5c1.4-2.1,1.4-4-0.1-5.7l-0.7-0.9h-1.6c-0.2,0-0.4,0-0.6,0
			c0.4-0.7,0.9-1.4,1.4-2.2c0.5-0.7,0.9-1.4,1.4-2.1c0.8-1.3,1.1-2.6,0.8-3.8c-0.3-1.3-1.2-2.3-2.5-3.1l-0.9-0.5l-1,0.3
			c-3.1,0.8-5.5,2.7-7.8,4.5c-0.5,0.4-1,0.8-1.5,1.2c-17.2,12.6-33.5,26.2-45.8,36.7c-5.4,4.6-10.7,9.4-15.9,14.1
			c-2.9,2.6-5.8,5.3-8.8,7.9c-3.6,3.1-7.1,6.3-10.9,9.6c-0.5,0.4-1,0.8-1.4,1.2c0.1-0.5,0.2-1,0.4-1.5l0.2-0.7
			c1.2-4.9,2.3-9.9,3.5-14.8c2.6-10.9,5.2-22.2,8.1-33.2c2.4-9.3,0.8-18-1.2-26l-0.5-1.9h-2c-0.3,0-0.7,0-1,0c-0.6,0-1.1,0-1.6,0
			c-0.4,0-0.9-0.1-1.5-0.3c-0.3-0.1-0.7-0.2-1.1-0.2L72,13.3L71.8,16c0,0.5-0.1,0.9-0.1,1.4c-0.1,0.7-0.1,1.4-0.2,2
			c-0.1,0.1-0.2,0.1-0.2,0.2c-0.7,0.6-1.9,1.6-2,3.6c-0.1,0.1-0.4,0.2-0.8,0.3c-2,0.5-2.3,2.2-3.5,8.6c-0.4,2.3-0.9,4.9-1.2,5.9
			l-0.3,0.8c-2.9,8.3-6,17-8.8,25.5c-1.6,5-3.2,10-4.8,14.9c-1,3.1-2,6.3-2.9,9.4c-1,2.6-2,5.4-2.9,8.1c-0.4,1.2-0.8,2.4-1.2,3.6
			l-1.5,4.5c-1.2,3.5-2.4,7-3.5,10.4c-0.4,1.1-0.4,2.2-0.5,3.2c-0.1,1.5-0.2,2.2-0.8,2.7c-1.5,1.4-0.8,3.8-0.6,4.2
			c0,0.1-0.2,0.4-0.3,0.7c-0.1,0.2-0.2,0.4-0.3,0.7c-0.3,0.7-0.6,1.3-0.9,2c-1.4,3.2-3,6.7-2.6,10.9c0,0.2-0.3,0.7-0.6,1.1
			c-1.6,1.7-1.9,3.5-2.2,5.1v0.2c-0.1,0.8-0.2,1.5-0.3,2.2c-0.1,1.8-0.3,2.6-1,3.2c-1.3,1.1-1.1,2.9-1,3.4c0.2,1.2-0.2,2.4-0.6,3.9
			c-0.3,1-0.6,2-0.7,3c0,0.3,0,0.3-1.2,0.8l-1.8,0.8l-0.1,1.5c-0.1,0.9-0.1,1.8-0.2,2.7c-0.1,3.2-0.3,6.2-1.8,8.8
			c-0.6,1-0.9,2.3-0.9,3.5c0.1,2.4-0.7,4.7-1.4,7.1c-0.6,1.8-1.2,3.7-1.5,5.7c-0.3,2.2-0.7,4.4-1.6,5.9c-1.9,2.9-2.3,6-2.6,8.8
			c-0.1,0.9-0.2,1.7-0.3,2.5c-0.5,3.1-1,6.3-1.4,9.4c-0.2,1.4-0.4,2.8-0.6,4.1c-0.1,1-0.3,2.1-0.5,3.1l-0.1,0.8
			c-0.3,1.9-0.4,3.8-0.5,5.7c-0.2,3.5-0.4,6.8-1.7,9.8c-0.8,1.8-0.6,3.7-0.4,5.4c0,0.4,0.1,0.8,0.1,1.2c0.1,1.2,0.6,2.2,1,2.9
			l0.1,0.3c0.6,1.1,1.6,1.9,2.8,2.2c0.4,0.1,0.7,0.1,1.1,0.1c0.9,0,1.8-0.3,2.5-0.7c2.7-1.8,4.3-4.4,5.5-6.5
			c5-8.6,9.5-17.7,13.5-27.9c8.5-21.2,16.1-44.9,23.2-72.2c0.7-2.5,1.4-5.1,2.2-7.5c0-0.1,0.1-0.2,0.1-0.3c1.4,1.3,2.8,2.6,4.1,4
			C68,148.3,72.8,152.9,77.5,157.6z"/>
		<path class="st0" d="M162.9,146.6l-0.1,3c-0.3,9-0.5,19.6,0.9,30.5c0.6,5.1,1.4,10.2,2.2,15.1c0.5,3,1,6.1,1.4,9.1
			c0.4,2.9,1.8,5.3,4.1,6.9c2.2,1.6,4.6,2.7,6.8,3.7c0.5,0.2,1.1,0.3,1.7,0.3c1.1,0,2.3-0.4,3.1-1.1c1.1-1,1.7-3,1.2-4.5
			c-0.3-1.2-0.8-2.2-1.3-3.4c0-0.1-0.1-0.2-0.1-0.3c2.4-3.3,2.6-7,2.8-10.3V195c0.2-3.7,0.8-7.5,1.7-11.3c1.9-8.3,3.3-16.3,4.1-24.3
			c0.2-2,0.2-3.9,0.2-5.8c0-3.3,0-6.4,1.1-9.3c0.4-1.2,0.2-2.3-0.1-3.2c-1.5-5.2-0.8-10.5,0.3-16.3c0.9-5.2,1.3-9.5,1-13.6
			c-0.1-1.7,0-3.4,0.1-5.2c0.1-0.8,0.1-1.6,0.1-2.4s0.1-1.6,0.1-2.4c0.1-1.5,0.2-3,0.2-4.5c0.1-3.1,0.1-6.4,0-9.8
			c0-1.2-0.2-2.3-0.4-3.4c-0.4-2.1-0.6-3.5,0.1-4.8c0.6-1.1,0.3-2.1,0.1-2.6V76c-0.7-6.9-1.4-13.8-2-20.7v-0.2
			c-0.1-0.9-0.3-3.5-3.4-4.2l-1.2-0.3l-1,0.8c-0.1,0.1-0.2,0.2-0.4,0.3c-0.3,0.3-0.7,0.6-1.1,0.9c0-0.1,0-0.1,0-0.2
			c-0.1-0.9,0-1.8,0-2.8c0-0.7,0.1-1.4,0.1-2.1c0-0.7-0.1-1.5-0.2-2.2c0-0.3-0.1-0.7-0.1-1.1l-0.3-2.7l-9.4,1.9L173,54.9
			c-1.4,7.5-2.8,14.8-4.2,22.2c-2.3,11.6-3.7,22-4.3,31.8C163.9,121.3,163.4,134.2,162.9,146.6z"/>
		<path class="st0" d="M526.7,30.7c-0.2-0.7-1-2.4-3.5-2.7h-0.4c-0.8-0.1-1.7-0.2-2.6-0.2c-0.5,0-1,0-1.6,0c-2.5,0-5.1-0.1-7.7,0.5
			c-0.1,0-0.1,0-0.2,0c-2.2-0.3-4.5-0.2-6.6,0.4s-4.2,1.5-5.9,2.3c-1.2,0.5-2.3,1.2-3.4,1.7c-0.5,0.3-1.1,0.6-1.6,0.8
			c-1.3,0.6-2.5,1.3-3.8,1.9c-2.5,1.3-5,2.6-7.5,3.9c-4.4,2.3-8.7,4.7-11.9,6.5c-0.9,0.5-1.7,1-2.6,1.5s-1.7,1-2.5,1.5
			c-2.2,1.2-4.4,2.4-6.6,3.5l-1.9,1c-2.8,1.5-5.7,3-8.6,4.5l-5.8,3c-3.1,1.6-6.3,3.3-9.4,4.9c-2.1,1.1-4.2,2.2-6.4,3.3
			c-2,1-4,2.1-6,3.1c-6,3.1-11.5,5.8-16.8,8.2c-1.8,0.8-3.5,1.7-5.2,2.6c-0.7,0.4-1.4,0.7-2.1,1c-3.1,1.6-7.3,3.8-11.1,6.5
			c-0.5,0.4-1,0.8-1.5,1.2c-0.4,0.3-0.8,0.6-1.2,0.9c-0.9,0.7-1.8,1.3-2.8,1.9c-1.9,1.3-3.9,2.7-5.8,4.3c-0.3,0.3-0.7,0.6-1.1,0.9
			s-0.8,0.5-1.1,0.8c-0.5,0.4-1,0.9-1.4,1.5c-1.1,1.6-2,3.6-2.7,5.9c-0.3,0.9-0.8,2.4-0.2,4.2c-0.6,1.7-0.2,3.2,1.2,4.6l0.3,0.3
			c0.6,0.6,1.4,1.4,2.4,2l0,0c0.6,0.5,1.1,1.1,1.7,1.6c0.1,0.1,0.3,0.3,0.5,0.4c1.1,1.9,3,2.9,5.6,2.9c1.1,0,2.2,0.1,3.3,0.2
			c2,0.3,3.9,0.6,6,1c0.1,0,0.2,0.1,0.3,0.1c1.2,0.9,2.5,0.4,4.1-0.1c0.3-0.1,0.8-0.2,1-0.3c0.6,0,1.2,0,1.8,0c0.4,0,0.9,0,1.3,0
			c1.6,1.7,3.9,0.7,5.5,0.1c0.3-0.1,0.9-0.4,1.2-0.5c0.8,0.1,1.7,0.1,2.5-0.1c0.8-0.1,1.6-0.2,2.5-0.5c0.2,0.1,0.4,0.1,0.6,0.2
			c1.5,0.5,3.9,1.3,5.6-0.6c0.2-0.2,0.3-0.3,0.3-0.3h0.1c1-0.1,1.8-0.2,2.4,0c0.7,0.2,1.5,0.3,2.5,0.1c0.4-0.1,0.9-0.1,1.3-0.1
			c1.7-0.2,3.4-0.4,5.1-0.7c0.2,0,0.3,0,0.3,0s0.1,0,0.2,0.1c1.1,0.8,2.5,1,3.8,0.7c1-0.3,1.9-0.8,2.4-1.6c0.7,0.1,1.6,0.2,2.6,0.1
			c1-0.2,2-0.4,3-0.7c0.4-0.1,0.7-0.2,1.1-0.3c0.7-0.2,2.8-0.4,3.3-0.4c0.9,0.1,8.2,0.2,9.6,0.1c0.7,0,1.4,0,2.2,0
			c0.4,0,0.8,0,1.3,0.1c0.3,0,0.6,0,1.1,0c0.7-0.1,1.4-0.2,2.1-0.3c1.3-0.2,2.5-0.4,3.8-0.6c2.2-0.3,4.4-0.5,6.5-0.7
			c0.4,0,0.6,0,0.6,0c1.8,0.4,3.7,0.6,5.5,0.5c0.9-0.1,2.1-0.1,3.3-1c0.5-0.1,1-0.1,1.6-0.2c0.9-0.1,1.9-0.2,2.8-0.3
			c1.4-0.2,2.8,0.1,4.4,0.4l0.6,0.1c1.4,0.3,2.8,0.6,4.1,1c0.5,0.1,0.7,0.2,0.8,0.3l0,0c0.1,1.1,0.8,2,1.3,2.4
			c0,0.2,0.1,0.4,0.1,0.5s0.1,0.3,0.1,0.4c0,0.2,0,0.4,0,0.6s0,0.4,0,0.5c-0.6,1.1-1.3,2.2-2.1,3.3c-0.6,0.8-1.4,1.6-2.1,2.2
			c-0.9,0.8-1.9,1.5-2.9,2.3l-0.8,0.6c-0.2,0.1-0.4,0.3-0.6,0.4c-0.2,0.2-0.5,0.3-0.7,0.5c-0.3,0.2-0.6,0.4-0.8,0.6
			c-0.3,0.2-0.6,0.5-0.9,0.7c-0.4,0.3-0.9,0.6-1.3,0.9l-2.5,1.6c-1.2,0.8-2.5,1.6-3.7,2.4c-0.5,0.3-1,0.6-1.5,0.9l-0.7,0.4
			c-0.2,0.1-0.4,0.2-0.6,0.4c-0.3,0.2-0.7,0.4-1.1,0.6c-0.6,0.3-1.3,0.7-1.9,1c-1,0.5-2,1-3,1.6c-0.6,0.3-1,0.7-1.4,1
			c-0.3,0.2-0.6,0.4-0.9,0.6c-1.4,0.8-2.9,1.6-4.4,2.4L460,149c-0.9,0.5-1.8,1-2.7,1.4c-2,1.1-4.1,2.2-6.1,3.3l-0.4,0.2
			c-0.9,0.5-1.9,1-2.8,2h-0.1l0,0c-0.2,0-0.7,0.1-1.2,0.4c-0.3,0.2-0.6,0.4-0.9,0.5c-1,0.6-1.9,1.1-2.7,1.3
			c-0.7,0.2-1.3,0.5-1.6,0.8l-0.1,0.1c-0.3,0.2-0.6,0.3-0.8,0.5c-0.5,0.3-1,0.6-1.5,0.7c-1.4,0.5-2.6,1.2-3.5,2.2l0,0
			c-0.7,0-1.3,0.2-1.6,0.3l-0.3,0.1c-0.6,0.3-1.3,0.5-2,0.9c-0.6,0.3-1.4,0.7-2,1.4c-1.7,0.3-3.2,1-4.5,2c-0.2,0.1-0.2,0.1-0.2,0.2
			c-1.3,0.2-2.4,0.8-3.3,1.7c-0.1,0-0.2,0.1-0.3,0.1c-0.5,0.1-0.9,0.2-1.2,0.4c-0.6,0.3-1.3,0.6-2,0.9c-1.1,0.4-2.6,1.2-3.8,2.7
			l-0.1,0.1c-2.3-0.2-3.7,1.3-4.3,1.9l-0.1,0.1c-0.6,0.2-1.2,0.5-1.8,0.7c-0.6,0.2-1.3,0.4-1.9,0.6c-0.7,0.2-1.4,0.5-2,0.7
			c-0.7,0.2-2.4,0.8-3.3,2.6c-0.2,0-0.4,0.1-0.5,0.1l-0.5,0.1c-0.1,0-0.2,0-0.2,0.1c-2-0.2-3.7,0.7-4.6,2.2c-0.2,0-0.4,0-0.6,0
			c-1.9,0-3.5,0.8-4.8,2.2c-0.2,0.2-0.4,0.4-0.6,0.6c-1.2-0.1-2.2,0.3-2.7,0.5l-0.5,0.2c-0.4,0.1-0.8,0.3-1.3,0.6
			c-0.6,0.3-1.2,0.7-1.8,1l-2.6,1.5l0,0c-0.3,0.2-0.6,0.4-0.9,0.7c-1.3-0.1-2.6,0.3-3.6,1.3c-0.6,0.5-1.1,0.8-1.6,0.8
			c-1.5,0.2-2.4,1.2-2.9,1.8l-1,0.3c-2.6,0.9-3.8,1.9-4.3,2.7c-1.4,0.2-2.7,0.7-4,1.3c-0.7,0.4-1.3,0.8-1.9,1.2l-0.6,0.4
			c-0.3,0.2-0.6,0.4-0.8,0.7c-0.6,0-1.2,0.2-1.8,0.5c-1.1,0.6-2.1,1.3-3.2,1.9c-0.4,0.3-0.7,0.6-0.9,1c-1.4,0.1-2.4,0.6-3,1.2
			c-0.4,0.3-0.8,0.6-1.3,0.7c-0.4,0.1-0.7,0.3-0.9,0.4l-0.9,0.5c-0.9,0.5-1.9,1.1-2.8,1.6c-0.6,0.4-1.1,0.8-1.6,1.1
			c-0.5,0.4-1,0.8-1.4,0.9c-0.9,0.3-1.4,0.9-1.7,1.2c-0.1,0-0.2,0.1-0.5,0.2c-0.9,0.4-1.9,0.8-3.1,1.5c-0.6,0.3-1.2,0.7-1.8,1.1
			c-0.2,0.1-0.4,0.3-0.6,0.4c-0.7,0.5-1.5,0.9-2.2,1.4c-1.7,1.1-3.5,2.2-5.2,3.3c-0.8,0.5-1.6,1.1-2.3,1.6c-0.7,0.5-1.3,1-1.9,1.4
			c-0.7,0.5-1.4,1-1.9,1.5c-0.7,0.6-1.2,1.1-1.8,1.4c-0.5,0.2-0.8,0.5-0.8,0.6c-0.3,0.3-0.6,0.5-0.9,0.8c-0.8,0.7-1.6,1.4-2.3,2.1
			c-1.2,1.2-2.2,2.4-3,3.6c-0.5,0.7-0.9,1.5-1.1,2.2c-0.1,0.3-0.2,0.5-0.3,0.8l-1.8,4l4.4-0.3c0.3,0,0.5,0,0.8,0
			c1.3-0.1,3-0.1,4.5-1.2c0.7,0.6,1.7,1,3.3,0.6c1-0.3,2-0.5,2.9-0.8l0,0l0,0c0.4,1,1.3,2.2,3.4,2.3c0.3,0,0.7,0,1.1,0l1.7,0.1
			l0.8-0.9c0.1-0.1,0.6-0.2,0.9-0.3c0.5-0.1,1-0.3,1.6-0.5c1.1,0.1,2-0.2,2.8-0.8c0.6,0.1,1.4,0,2.1-0.4c0.1,0,0.1,0,0.2,0
			c0.7,0.1,2.6,0.3,4.4-1.1l0.8,0.4l1.3-1c0.2-0.2,0.4-0.3,0.6-0.5l0.1-0.1c0.1,0,0.3,0,0.4,0h0.1c1.1,0,3.1-0.1,4.4-1.8
			c0.6,0,1.4-0.2,2.1-0.7h0.1c0.4,0,1.1-0.1,1.7-0.5c0.3-0.2,0.6-0.4,0.8-0.5c0.5,0,1.1-0.2,1.7-0.6h0.1c0.2-0.1,0.5-0.3,0.9-0.5
			c0.7-0.5,1.4-0.8,2.1-0.9c0.8-0.1,1.4-0.6,1.6-0.8c0.4-0.3,1-0.8,1.4-1.4l3.3-1.3c0.1,0,0.2,0,0.2-0.1c0.6-0.2,1.6-0.5,2.3-1.4
			c0.1-0.1,0.4-0.2,0.6-0.3s0.4-0.1,0.6-0.2c0.4-0.2,1-0.4,1.5-1c0.2-0.2,0.6-0.4,1.1-0.6l0.5-0.2c0.4-0.2,0.8-0.3,1.3-0.5
			c1.1-0.4,2.4-0.9,3.6-1.8c0.4-0.3,0.9-0.7,1.3-1c0.5-0.4,0.9-0.7,1.4-1.1l0.1-0.1c1.4-0.1,2.4-0.7,3-1.1l0.6-0.3
			c0.8-0.5,1.7-1,2.6-1.7c0.4-0.3,0.6-0.4,1-0.5h0.1c0.7-0.2,1.7-0.5,2.5-1c1.4-0.9,2.6-1.8,3.6-2.5c0.4-0.3,0.5-0.3,0.6-0.3
			c1,0,1.9-0.4,2.6-0.8c0.7-0.4,1.4-0.8,2-1.2l0.8-0.5c0.4-0.3,0.9-0.5,1.4-0.9c0.4-0.4,0.9-0.7,1.3-1.1c0.5-0.4,0.9-0.8,1.3-1.1
			c0,0,0.1,0,0.2-0.1c0.2-0.1,0.5-0.1,0.8-0.1c0.5-0.1,1-0.1,1.6-0.3c2-0.5,4.1-1.4,5.5-3.7c0,0,0-0.1,0.1-0.1l0,0
			c0.9,0.2,1.8-0.1,2.2-0.2c0.6-0.2,1.4-0.5,2.1-0.8l0.2-0.1c0.6-0.2,1.3-0.6,2-1.1c0.4-0.3,0.7-0.7,1-1s0.6-0.6,0.8-0.7
			c0.8-0.3,1.3-0.8,1.5-1.1c0.2-0.2,0.5-0.5,0.7-0.6c0.8,0.2,1.4,0,1.8-0.1c1.7-0.3,3-1.1,4-1.8c0.4-0.2,0.8-0.5,1.2-0.6
			c2.6-0.9,4.7-2.3,6.8-3.7c0.5-0.3,1.1-0.7,1.6-1l0.3-0.2c0.5-0.3,0.9-0.6,1.4-0.8l0.4-0.2c1.1-0.5,2.5-1.2,3.5-2.7
			c3.1-0.5,5.8-1.9,7.5-2.9c1.3-0.8,2.7-1.6,4-2.3l0.4-0.2c0.8-0.5,1.6-0.9,2.5-1.4s1.8-1,2.6-1.4c0.3-0.2,0.6-0.4,0.9-0.6
			c0.1-0.1,0.3-0.2,0.4-0.3l2.5-1.3c2.5-1.3,5-2.7,7.6-3.9c4.1-2,8.2-4.5,12.2-7.3c0.6-0.4,1.1-0.8,1.7-1.2c0.5-0.4,1-0.7,1.5-1.1
			l0.7-0.5c1-0.7,2-1.4,3-2.2c0.6-0.5,1.3-1,1.9-1.5c0.8-0.6,1.6-1.2,2.3-1.8c3.1-2.3,6.1-4.8,8.7-7.5c0.3-0.3,0.6-0.6,0.9-0.9
			c1.3-1.4,2.6-2.7,4.1-3.7c0.7-0.5,1.2-1.1,1.7-1.6l0.1-0.1c1.1,0,2.1-0.4,2.9-1.1c0.8-0.7,1.2-1.8,1.1-2.8
			c0.1-0.1,0.2-0.3,0.3-0.4l0.1-0.2c0.4-0.5,0.6-1,0.7-1.3c0-0.1,0-0.1,0.1-0.2c0.2-0.3,0.3-0.7,0.5-1c0.3-0.5,0.6-1.1,0.8-1.6
			c0.6-1.2,1.3-2.5,1.9-3.9c1.2-2.8,1.2-5.6,0-8.2c0-0.2,0-0.4-0.1-0.7c-0.1-0.5-0.1-0.9-0.1-1.2c0.2-2.6-1.1-4.4-2-5.7l-0.1-0.2
			c-1.6-2.3-3.7-4.3-6-6.1c-0.1-0.1-0.3-0.2-0.4-0.3c-0.5-0.4-1-0.8-1.8-1.2c-1.9-1-3.7-1.8-5.5-2.5c-0.9-0.4-1.9-0.6-2.7-0.7h-0.3
			c-0.6-0.1-1.2-0.2-1.8-0.3c-0.8-0.1-1.6-0.2-2.3-0.4c-1.9-0.5-3.9-0.8-5.8-1l-0.7-0.1c-0.9-0.1-1.8-0.1-2.6-0.2
			c-0.6,0-1.1,0-1.7-0.1c-1.4-0.1-2.7-0.3-4.1-0.4c-1-0.1-1.9-0.2-2.9-0.3c-0.4,0-0.7,0-1,0c-0.1,0-0.1,0-0.1,0
			c-0.3,0-0.7-0.1-1-0.1c-0.6-0.1-1.3-0.2-2-0.2c-2.4-0.1-4.8-0.1-7-0.2c-2.2,0-4.4,0-6.5,0.1h-0.8c-0.8,0-1.6,0-2.4,0
			c-2.2,0-4.5,0.1-6.8,0.2c-3.5,0.2-7,0.5-10.3,0.8c-1.6,0.1-3.1,0.3-4.7,0.4l-2.1,0.2c-2.1,0.2-4.4,0.4-6.5,0.5
			c-0.8,0-1.6,0.1-2.4,0.1c-0.9,0-1.9,0-2.8,0.1h-0.4c-4.7,0.3-9.6,0.6-14.3,0.4c-0.7,0-1.5-0.1-2.2-0.1c0.2-0.1,0.5-0.2,0.8-0.3
			c0.5-0.2,1-0.5,1.5-0.7c1.3-0.6,2.9-1.2,4.2-2.4c0.1,0,0.2-0.1,0.4-0.2c0.4-0.2,0.8-0.4,1.1-0.7c0.2-0.1,0.4-0.2,0.5-0.4
			c0.1-0.1,0.2-0.1,0.3-0.2c0.2-0.1,0.6-0.3,1.1-0.5c3.7-1.7,5.3-2.5,5.9-3.7c0.8,0.1,1.5-0.1,2-0.4l0.7-0.4
			c1.1-0.6,2.3-1.2,3.4-1.9c0.8-0.5,1.5-0.6,2.3-0.4c1.5,0.3,3.8-0.6,5.2-1.9c2.4,0.2,3.6-0.8,4.2-1.7c0.1-0.1,0.4-0.1,0.6-0.1
			c1.2-0.3,2.1-0.8,2.9-1.7c0.1-0.1,0.5-0.3,0.8-0.5c0.1-0.1,0.4-0.2,0.7-0.3c0.2-0.1,0.4-0.1,0.6-0.2l1.8-0.7l-0.1-1.6
			c0.4-0.2,0.9-0.4,1.4-0.5c2.8-1,5.5-2,8.3-3c1.9-0.7,3.3-1.7,4.3-3c0.1-0.2,0.2-0.3,0.3-0.5c0.5-0.1,0.9-0.3,1.3-0.6
			c0.9,0,2.1-0.3,3.1-1.5c0.1-0.1,0.4-0.3,0.7-0.5l0.1-0.1c0.2-0.1,0.4-0.2,0.5-0.3c0.4-0.2,0.9-0.5,1.4-0.9
			c0.3-0.3,0.4-0.3,0.4-0.3c0.6,0,1.1-0.2,1.8-0.5c0.9-0.4,1.6-1.1,2.2-1.8c0.3-0.3,0.7-0.7,0.8-0.7c1.1-0.5,2.2-1.1,3.2-1.7
			c1-0.6,1.9-1.2,2.7-1.4c1-0.3,1.9-0.6,2.9-0.9c1.3-0.4,1.6-0.8,2.9-1.2c1.2-0.4,2.4-1.9,3.5-2.4c1.3-0.5,3.5-2,4.7-2.5
			c4.9-1.7,9.5-4,13.3-6c0.6-0.3,1.2-0.7,1.8-1.1c0.5-0.3,0.9-0.6,1.3-0.8c3.4-1.8,5.9-1.7,8-3.8l0.4-0.5c0.5-0.6,1-1.1,1.5-1.5
			c1.7-1.4,3.4-2.7,5.1-4L526,35c0.2-0.2,0.4-0.4,0.6-0.6C526.7,33.8,527.2,32.2,526.7,30.7z"/>
	</g>
	<g>
		<path class="st0" d="M257.8,491.1c-0.1-1.5-0.6-2.9-1-4.1c-0.2-0.6-0.4-1.3-0.6-1.8l-0.4-1.5l-1.3-0.3c0-0.5,0-0.9,0-1.2
			c0-0.1,0-0.2,0-0.3c0-1.4-0.8-2.3-1.3-2.8l-0.1-0.1l0,0c0.6-1.2,0.5-2.4,0.4-3.1c-0.1-0.6-0.3-1.2-0.5-1.6
			c-0.1-0.2-0.1-0.4-0.2-0.6c-0.1-0.3-0.2-0.6-0.3-1c-0.2-0.7-0.4-1.4-0.5-1.9c-0.1-1.2-0.3-3.1-1.7-4.9c-0.6-0.8-0.6-1.2-0.6-1.5
			c0.1-0.9-0.1-1.8-0.4-2.6c-0.3-0.7-0.6-1.3-0.8-2c-0.8-1.9-1.6-3.9-2.7-5.8c-2.8-4.8-5.3-8.3-8.1-11.3l-0.9-1
			c-2.1-2.3-4.3-4.6-7-6.5c-0.1-0.1-0.2-0.2-0.4-0.3c-0.6-0.5-1.6-1.4-3.1-1.5c-1.5-1.2-3.1-2-4.6-2.7c-0.3-0.2-0.7-0.3-1-0.5
			s-0.7-0.3-1-0.4c-0.7-0.3-1-0.4-1.2-0.6c-0.7-0.9-1.6-1.3-2.2-1.5c-0.1,0-0.2-0.1-0.3-0.1l-2.4-1.1l-1.2,3.2l0,0
			c-0.4-1.5-1.7-2.1-2.2-2.3l-2.6-0.9l-0.5,2.2c-0.5,0.1-1,0.3-1.4,0.7c-0.5,0.5-0.7,1.1-0.8,1.6c-0.2-0.1-0.4-0.2-0.6-0.2l0.1-0.1
			l-3.3-1.2c-0.1,0-0.1-0.1-0.2-0.1c-0.4-0.2-0.9-0.4-1.6-0.4c-0.3,0-0.7,0-1.2,0.1c-0.2-0.1-0.5-0.2-0.7-0.3c0.6-0.4,1-0.9,1.3-1.2
			c0.1-0.1,0.1-0.2,0.2-0.2c0.1-0.1,0.1-0.1,0.2-0.2c1.6-0.8,2.5-2.1,3.2-3.2c2.7-4,2.2-7.3-1.5-10.5c-0.5-0.4-0.9-0.9-1.5-1.7
			c-1.5-1.8-3.1-2.9-5-3.3c-1.9-0.5-5-1.2-7.6,0.8c-1.5,0-2.4,0.8-3,1.3c-0.1,0.1-0.2,0.1-0.3,0.2c-0.2,0.2-0.4,0.3-0.6,0.5
			c-0.6,0.3-1.3,0.6-1.9,1c-1.8,0.9-3.6,1.8-5.4,2.6c-2.2,0.9-4.5,2-7.1,3.3c-1,0.6-2.1,1.1-3.1,1.6c-1.6,0.8-3.2,1.7-4.8,2.6
			c-2.6,1.5-5.1,3-7.5,4.6l-0.7,0.4c-1.8,1.1-3.3,2.1-4.9,3.3c-1.8,1.4-3.6,2.8-5.3,4.3l-1.8,1.5c-1.4,1.1-2.9,2.3-4.3,3.6l-1.5,1.2
			c-2,1.7-4,3.5-6,5.3c-0.4,0.4-0.8,0.7-1.2,1.1c-2.2,2.1-4.5,4.2-6.4,6.9c-0.1,0.1-0.3,0.2-0.4,0.4c-0.4,0.4-0.8,0.8-1.1,1.1
			c-1,1-2,2-2.9,3.3s-1.9,2.5-2.9,3.8c-0.6,0.7-1.1,1.4-1.7,2.1c-0.1,0.1-0.2,0.2-0.3,0.3c-0.4,0.5-1.2,1.4-1.4,2.7
			c-0.6,0.4-1.2,0.8-1.8,1.3c-1.1,1.1-2,2.3-2.6,3.5c-0.1,0.2-0.2,0.3-0.3,0.5c-0.3,0.6-0.8,1.3-1,2.3c-1,0.6-1.6,1.4-2,1.9
			c-0.1,0.2-0.2,0.3-0.4,0.5c-1,1.2-1.4,2.3-1.5,3.3c-0.8,0.5-1.5,1.1-2.1,2.1c-0.6,0.9-1.1,1.8-1.6,2.7l-0.5,0.9
			c-0.1,0.2-0.2,0.4-0.3,0.5c-0.1,0.1-0.1,0.2-0.2,0.4l-1.1,1.8c-0.8,1.4-1.6,2.7-2.4,4.1c-0.3,0.6-0.4,1.1-0.5,1.5l0,0l-0.2,0.3
			c-0.8,1.2-1.7,2.7-2,4.6c-1,1.1-1.7,2.4-2.2,4c-0.2,0.7-0.4,1.4-0.7,1.8c-0.5,0.7-0.7,1.5-0.7,2.2c-0.1,0.2-0.4,0.4-0.5,0.8
			c-1.3,2.5-2.2,5.1-3,7.7l-0.3,0.9c0,0.1-0.1,0.2-0.1,0.3c-0.1,0.3-0.2,0.5-0.3,0.8c-0.1,0.3-0.2,0.6-0.3,0.9
			c-0.4,1.1-1.1,2.6-0.7,4.5c-0.3,0.5-0.5,1-0.8,1.6c-0.3,0.5-0.5,1.1-0.8,1.6c-0.5,1-1.2,2.4-0.9,4.4c0,0.4,0,0.9-0.1,1.5
			c0,0,0,0,0,0.1c-1.3,1.1-1.7,2.5-2,3.6c-0.1,0.4-0.2,0.8-0.4,1c-0.3,0.7-0.5,1.3-0.6,1.8c-0.1,0.4-0.2,0.7-0.3,0.9
			c-0.5,1.1-0.6,2.2-0.6,3c0,0.3,0,0.6,0,0.8c0,0.1-0.1,0.3-0.2,0.5c-0.2,0.5-0.3,1.1-0.4,1.5c0,0.1-0.1,0.3-0.1,0.4
			c-0.6,0.6-0.9,1.5-0.8,2.6c0,0.2,0,0.5,0,0.7c0,0.4,0,0.9-0.1,1.1c-0.8,2.8-1.5,5.3-2.3,7.6c-0.8,2.5-1.3,5.4-1.6,8.9
			c-0.1,2.4-0.2,4.8-0.2,7.2c0,0.7,0,1.5,0,2.2c0,0.5,0.1,0.9,0.1,1.2c0,0.1,0,0.2,0,0.2c-0.5,2.3-0.5,4.6-0.1,6.9
			c0.1,0.7,0.4,1.7,1.1,2.7c0.6,0.8,0.4,1.7,0.3,2.1c-0.5,1.4-0.7,2.5-0.6,3.8c0.2,2.6,0.8,5.4,1.9,8.1c0.2,0.5,0.5,0.8,0.8,1.1
			c0,1.5,0.6,2.9,1.1,4l0.1,0.3c0.7,1.6,1.3,3.3,1.7,5c0.2,0.9,0.4,1.9,1.1,2.8c0.9,1.2,1.3,2,1.4,2.9c0.1,0.4,0.2,1.6,1.1,2.4
			c0.1,0.1,0.3,0.5,0.4,0.8c0.2,0.4,0.4,1,0.7,1.5c1.1,1.8,2.3,3.8,3.6,5.7c0.6,0.8,1.5,2,3,2.5c0.1,0.2,0.3,0.4,0.4,0.6
			c0.1,0.1,0.3,0.3,0.3,0.5c0.1,1.7,1.1,3.2,2.6,4c0.6,0.3,1.1,0.4,1.5,0.4c0.9,0.5,1.9,0.8,2.9,0.7c0.5,0.6,1.1,1.2,2,1.6
			c0.8,1.2,2.1,1.8,2.8,2l0.9,0.4c1.2,0.5,2.4,1,3.7,1.5c0.4,0.8,1.2,1.6,2.6,1.9c1.3,0.3,2.6,0.6,3.9,1l1.7,0.4
			c0.3,0.1,0.5,0.1,0.7,0.1l0.7,0.1c0.6,0,1.1,0.1,1.7,0.1c1.3,1.2,2.8,1,3.4,1l1.7-0.2c0.9-0.1,1.8-0.2,2.8-0.2c0.1,0,0.2,0,0.3,0
			c1.7,0.8,3.3,0.6,4.5,0.5h0.2c0.2,0,0.6,0,0.9,0.1c0.3,0,0.7,0.1,1,0.1h0.2c0.6,0,1.2,0.1,1.9,0c1.7-0.2,3.4-0.4,5.1-0.6h0.4
			c0.5-0.1,1.1-0.1,1.8-0.5c0.2-0.1,0.5-0.2,0.9-0.1c0.8,0.1,1.5,0,2.1-0.1c0.9-0.1,1.7-0.3,2.6-0.4c0.8-0.1,1.7-0.3,2.5-0.4
			l0.5-0.1c0.6-0.1,1.2-0.2,1.7-0.2c2.1,0,3.8-0.7,5.3-1.4c1.1-0.5,2.2-1.1,3.2-1.7c0.8-0.4,1.6-0.9,2.3-1.2l0.5-0.3
			c2.2-1.1,4.3-2.1,6.5-2.7c1.3-0.3,2.4-0.9,3.3-1.3l0.6-0.3c0.6-0.3,1.2-0.6,1.8-1c0.5-0.3,1.1-0.6,1.6-0.9
			c0.5-0.3,1.1-0.5,1.6-0.7c0.8-0.4,1.7-0.7,2.6-1.2c0.7-0.4,1.4-0.8,2-1.2s1.2-0.8,1.7-1.1c3-1.5,6-3.4,9.1-6
			c0.3,0.3,0.6,0.5,0.9,0.8c0.1,0.1,0.3,0.3,0.4,0.4c0.2,0.2,0.5,0.4,0.5,0.5c0.4,0.6,1.3,2.2,3.2,2.8c0.9,1.3,2.1,2.1,3.1,2.7
			c0.1,0,0.1,0.1,0.2,0.1l0.9,2.5l1.1,0.4c0.2,0.1,0.5,0.2,0.8,0.2l0,0c1.2,1.2,2.7,1.8,3.9,2.3c0.9,0.4,1.7,0.7,2.2,1.2
			c0.4,0.4,1,0.7,1.7,0.8c0.5,0.1,1,0.5,1.7,1c0.3,0.2,0.6,0.5,0.9,0.7h-0.1c0.3,0.3,1.1,1.1,2.3,1c0.4,0,1,0.4,1.7,1.1l1.2,1.1
			l0.9-0.4c0.5,0.4,1,0.7,1.4,0.9c0.2,0.1,0.5,0.2,0.6,0.3c0.8,0.6,1.9,0.8,2.8,0.6c0.1,0,0.1,0.1,0.3,0.2c1,0.6,1.9,1.2,2.9,1.9
			l8.6,5.7l-0.6-1.2c0.1,0,0.3,0.1,0.4,0.1l1.3,0.5l1.4,1.1l0.7-0.4l0.3,0.1l4.4,2.9l-0.4-5.1c-0.1-1-0.5-1.9-1.1-2.7
			c-0.4-0.5-0.9-1-1.3-1.4c-1.3-1.4-2.6-2.8-4-4.2c-1.1-1.1-2.2-2.1-3.4-3.1c-0.9-0.8-1.7-1.5-2.6-2.3c-1.6-1.5-2.8-2.8-3.9-4
			c-4.1-4.8-8.1-8.6-12.2-11.7l-1.5-1.1c-1.2-0.9-2.3-1.8-3.5-2.7c-0.8-0.7-1.6-1.3-2.5-2c-0.6-0.5-1.2-1-1.8-1.5
			c-0.3-0.2-0.6-0.5-0.9-0.7c-0.1-0.1-0.2-0.1-0.3-0.2c0.5-0.5,1-1.1,1.3-1.9c0,0,0.1,0,0.1-0.1l0.2-0.2c0.8-0.8,1.7-1.6,2.5-2.3
			c1.1-1,2.2-2.1,3.4-3.1c0.3-0.3,0.6-0.7,0.8-0.9c0.1-0.1,0.1-0.2,0.2-0.3c0.5-0.5,1-1.1,1.4-1.6c0.3-0.3,0.6-0.6,0.8-0.9
			c0.6-0.6,1.2-1.2,1.8-1.9c0.7-0.9,1.3-1.8,1.7-2.5c0.5-0.9,1-1.8,1.4-2.7c0.2-0.5,0.4-1,0.5-1.4c0.3-0.8,0.5-1.4,0.8-1.6
			c0.7-0.5,1-1.1,1.2-1.5c0.8-1.5,1.6-3,3-4.2c0.5-0.4,0.8-1,0.9-1.3c0.2-0.3,0.5-0.7,0.7-1c0.5-0.8,1-1.5,1.6-2
			c2-1.6,3.3-3.5,4.6-5.4l0.1-0.1c0.6-0.8,1.1-1.7,1.5-2.5c0.2-0.4,0.4-0.7,0.6-1.1l1.8-3.1h1.1l0.5-1.9c0.1-0.5,0.2-1,0.3-1.5
			c0.1-0.8,0.3-1.5,0.5-1.9c0.8-1.6,1.8-3.2,2.9-4.8l0.7-1.1c1.7-2.6,3.1-5.6,4.5-9.4c0.2-0.5,0.4-1,0.6-1.4
			c0.3-0.7,0.6-1.5,0.9-2.3l0.2-0.5c0.4-1.3,0.9-2.8,1-4.5c0-0.9,0.1-1.8,0.3-2.7c0.3-1.3,0.6-2.5,0.9-3.8c0.5-2.3,1.1-4.7,1.8-7
			c0.7-2.2,1-4.5,1.3-6.7l0.1-0.7c0.2-1.1,0.3-2.2,0.3-3.2c0-0.6,0.1-1.1,0.2-1.7c0-0.2,0.1-0.3,0.1-0.3c1-2.9,2.1-6.3,2.2-10.1
			c0-0.9,0.1-1.8,0.1-2.7C258,498.4,258.1,494.8,257.8,491.1z M231.3,503c-0.2,0.9-0.2,1.8-0.2,2.6c0.1,1.3,0,2.7-0.3,4
			c-0.3,0.9-0.5,1.8-0.6,2.6c-0.7,3.4-1.5,6.8-2.2,10.2l-0.7,3.1c-0.6,2.9-1.3,5.8-1.5,9c-0.7,1.7-1.5,3.5-1.6,5.7
			c0,0.1-0.2,0.4-0.2,0.6c-0.1,0.2-0.2,0.5-0.3,0.7c0,0.1-0.1,0.1-0.1,0.2c-0.1,0.2-0.3,0.6-0.4,1.1c-0.1,0.5-0.3,1.1-0.4,1.6
			c-0.2,0.7-0.3,1.4-0.5,2c-0.1,0.3-0.3,0.6-0.4,1l-0.2,0.5c-0.1,0.3-0.3,0.6-0.4,0.9c-0.2,0.4-0.4,0.9-0.6,1.3
			c-0.4,0.9-0.7,1.8-0.9,2.6c-0.4,1.2-0.7,2.3-1.4,3.1s-0.9,1.6-1,2.2c0,0.1,0,0.2-0.1,0.3c-0.1,0.2-0.1,0.4-0.2,0.6
			c-0.1,0.2-0.1,0.5-0.2,0.6c-0.2,0.4-0.4,0.8-0.6,1.2c-0.7,1.3-1.5,2.9-2,4.6c-0.1,0.1-0.1,0.2-0.2,0.3c-0.3,0.4-0.6,0.9-0.9,1.3
			c-0.7,1-1.5,2.1-2.1,3.3c-0.8,1.5-1.5,2.7-2.7,3.5c-1.1,0.7-1.5,1.6-1.6,2.3c-0.1,0.5,0,1,0.2,1.5c-0.2,0.4-0.4,0.8-0.5,1.2
			c-0.2,0.5-0.4,1-0.6,1.2c-0.5,0.4-0.8,0.8-1,1.5l0,0c-0.2,0.3-0.4,0.6-0.5,0.7l-0.1,0.1c-0.4,0.4-1.3,1.3-1.5,2.8
			c-0.9,0.7-1.5,1.7-1.7,2.7c-0.1,0.4-0.2,0.6-0.6,0.9c-1.8,1.7-3,3.3-3.7,5.1c-0.5,0.5-0.9,1-1.3,1.5c-0.4,0.5-0.8,0.9-1.1,1.1
			c-0.8,0.5-1.3,1.1-1.5,1.6c0,0.1-0.1,0.1-0.1,0.1c-0.3,0.4-0.6,0.7-0.9,1.1c-0.7,0.8-1.4,1.6-2.1,2.4c-0.3-0.3-0.7-0.6-1-0.9
			c-0.2-0.2-0.5-0.4-0.7-0.6l-1.8-1.6c-1.7-1.5-3.4-3-5.1-4.5c-1.7-1.5-3.5-3-5.2-4.5l-1.2-1c-0.8-0.7-1.6-1.4-2.5-2
			c-0.2-0.1-0.3-0.3-0.5-0.4c-0.6-0.5-1.3-1.1-2.1-1.5c-0.9-0.5-1.9-0.9-2.8-1.3l-0.6-0.2c-0.6-0.3-1.5-0.6-2.5-0.5
			c-0.9,0.1-1.7,0.2-2.4,0.3c-0.6,0.1-1.3,0.2-1.9,0.2c-1.9,0.1-3,1.2-3.8,1.8c-0.1,0.1-0.2,0.2-0.3,0.3c-1,0.9-1,2.1-1,2.5v0.1
			l-0.1,2.4l0.8,0.1c-0.1,0.4-0.1,0.9,0,1.4l-1.9,1.8l1.7,2.3c0.3,0.4,0.6,0.8,0.9,1.2c0.4,0.5,0.9,0.8,1.5,1.1
			c0.3,0.1,0.6,0.2,0.9,0.4c1.1,0.4,1.6,0.6,1.9,1.1c0.4,0.7,1,1,1.2,1.1c0.3,0.2,0.7,0.5,1,0.7c0.8,0.6,1.6,1.2,2.7,1.6
			c0.7,1,1.7,1.2,2.1,1.3l0.4,0.2c0.4,0.1,1,0.3,1.1,0.5c0.7,0.6,1.3,1.4,1.9,2.3c0.7,1,1.5,2.1,2.6,3.1c0.7,1.3,1.7,2.2,2.6,2.9
			l0.1,0.1c-0.7,0.2-1.4,0.4-2.1,0.6c-0.4,0.1-0.8,0.2-1.1,0.3l-0.3,0.1c-0.4,0.1-0.8,0.2-1.3,0.4c-0.8,0.4-1.6,0.8-2.3,1.1h-0.1
			c-0.3,0.1-0.8,0.4-1.2,0.8c-2.6-0.4-4.8,0.4-6.4,2.6c-0.1,0-0.1,0-0.2-0.1l-0.3-0.1c-0.4-0.1-1.7-0.5-2.9,0.3
			c-0.8,0.5-1.2,1.4-1.3,2.5c0,0.6-0.1,1.2,0,1.8c-0.8,0.2-1.5,0.6-2.2,1.2c-0.5,0.5-1.1,0.7-1.7,0.8c-1.2,0.2-2.4,0.5-3.6,0.8
			c-0.5,0.1-1,0.3-1.6,0.4c-2.6,0.6-5,0.8-7.4,0.6h-0.1c-1.5-0.1-3-0.2-4.5-0.2c-2.6,0-5.2-0.5-7.8-1.3c-4.4-1.5-8.2-3.9-11.4-7.2
			c-2.1-2.2-3.7-4.8-5.4-7.5l-0.4-0.6c-2.5-4.1-4.1-8.8-5.5-12.8c-0.1-0.3-0.2-0.8-0.3-1.2l-0.3-1.7c-0.6-3-1.2-6-1.7-9
			c-0.1-0.6-0.1-1.2-0.1-1.7c0.1-1.6,0.3-3.2,0.4-4.8c0.3-2.8,0.5-5.6,0.7-8.5c0.2-4.7,0.7-8.4,1.5-11.8c0.6-2.7,1.1-5.4,1.6-8
			l0.2-1.2c0.4-2,0.8-4.1,1.2-6.2c0.5-2.6,1-5.3,1.5-7.9c0.3-1.5,0.9-2.8,1.9-3.8c1.2-1.2,2-2.6,2.3-4.2c0.4-1.9,0.8-3.7,1.2-5.6
			l0.2-0.9c0.1-0.4,0.2-0.9,0.3-1.3c0.2-1,0.4-2,0.7-2.8c0.2-0.5,0.4-1.1,0.7-1.6c0.9-2.2,1.7-4.3,3.1-5.9c0.5-0.5,0.8-1.2,0.9-1.5
			c1.5-3.3,3-6.6,4.5-9.9c0.2-0.5,0.4-0.9,0.6-1.4c0.4-0.9,0.7-1.7,1.1-2.4c2.2-3.7,4.7-7.1,7.4-10.1c0.8-0.9,1.4-1.8,2-2.6
			c0.3-0.4,0.5-0.8,0.8-1.1c0.4-0.6,0.9-1.2,1.3-1.8c1-1.3,1.9-2.6,2.9-3.8c1.7-1.9,3.4-3.8,5.1-5.7c1.2-1.4,2.5-2.7,3.7-4.1
			c1.1-1.3,2.4-2.9,3.2-4.9c0,0,0.1-0.2,0.5-0.6c1.9-2,3.8-4,5.7-6c0.4-0.4,0.8-0.9,1.3-1.2c3.6-2.9,7.2-5.8,10.8-8.6
			c0.3-0.2,0.6-0.5,1-0.7c0.6-0.4,1.4-0.9,2-1.6c0.9-0.8,2-1.3,4-1.7c2.1-0.4,4.8-1.1,6.9-3.2c1.1-1.1,2.4-2,3.6-2.9
			c0.1,0,0.2-0.1,0.4-0.2c0,0.2,0.1,0.4,0.1,0.6v0.1c0.1,0.3,0.2,0.7,0.2,1c0.1,0.5,0.2,1,0.3,1.3c0,0.8,0.1,1.4,0.3,2.1l-0.7,0.6
			l0.7,1.7v0.1c-0.2,1.3,0.5,2.6,1.8,3.8c1.1,1,2.2,2.1,3.4,3.8c0.2,0.3,0.4,0.5,0.6,0.6c0.5,0.6,1.1,1.2,1.6,1.8
			c1.2,1.3,2.4,2.6,3.6,3.9c0.5,0.6,1.1,1.1,1.6,1.7c2.2,2.3,4.5,4.7,6.9,6.9c2,1.8,4.3,3.3,6.4,4.8l0.7,0.5
			c2.6,1.8,4.6,3.9,6.1,6.6c1.7,3,2.7,6.2,3.5,8.9l0.2,0.7c0.7,2.5,1.5,5.1,2.1,7.7c0.4,1.4,0.7,2.9,1,4.4c0.3,1.2,0.5,2.4,0.8,3.7
			C231.4,501.6,231.5,502.3,231.3,503z"/>
		<path class="st0" d="M424.6,588.7l0.5-0.6l-0.4-0.7c-0.1-0.1-0.1-0.2-0.2-0.3c0,0,0,0-0.1-0.1c-0.3-1.1-2.6-1.4-3.3-1.4
			c-0.5-0.1-2.1,0-2.8,0c-0.1-0.1-0.3-0.1-0.5-0.2c-0.6-0.3-1-0.4-1.3-0.5c-0.1,0-0.4-0.1-0.7-0.1c-0.6-0.1-1.6-0.2-2.2-0.4
			c-0.8-0.4-6.2,1.1-6.2,1.1c-0.5,0.2-1,0.3-1.6,0.4c-0.3,0.1-2.7,0.6-3.1,0.7c-0.5,0.1-0.9,0.3-1.4,0.4c-1.2,0.4-2.5,0.8-3.7,1.2
			c-2,0.8-4,1.6-6,2.5l-1.2,0.5c-1.3,0.6-2.6,1.2-4,1.7l-0.9,0.4c-0.4,0.2-0.9,0.4-1.3,0.6c-0.8,0.4-1.6,0.8-2.5,1.1
			c-0.8,0.3-1.7,0.8-2.5,1.2c-1.3,0.7-2.6,1.4-3.9,1.6c-0.5,0.1-1.9,0.7-5.4,2.4c-1,0.5-2.2,1-2.4,1.1c-0.5,0.1-1.5,0.5-3.3,1.3
			c-0.8,0.3-1.8,0.7-2,0.8c-0.2,0-0.4,0.1-19.8,7.1l-1.8,0.6c-0.2,0.1-0.4,0.1-0.7,0.2c-0.4,0.1-0.7,0.2-1.1,0.4s-0.8,0.4-1.2,0.6
			c-0.6,0.3-1.1,0.5-1.7,0.7c-2.8,1-5.7,1.9-8.5,2.9L324,617c-0.2,0.1-0.4,0.1-0.6,0.2c-0.4,0.1-0.9,0.2-1.3,0.4
			c-0.9,0.2-1.7,0.5-2.6,0.8l-1,0.3c-1.5,0.5-3,1-4.5,1.3c-1.2,0.3-2.3,0.6-3.5,0.9c-0.6,0.2-1.1,0.3-1.7,0.5
			c-0.4,0.1-0.9,0.2-1.3,0.3l-1,0.2c-0.2,0-0.3,0.1-0.5,0.1c-0.4,0.1-0.9,0.2-1.4,0.4c-0.6,0.3-2.7,0.2-3.3,0.2c-0.3,0-0.5,0-0.6,0
			c-0.5,0-0.9,0-1.4,0H299c-1.1,0-2.3-0.1-3.5,0.6c-0.1,0-0.2,0.1-0.5-0.2c-0.3-0.4-3.7-2.4-4.7-2.3c-0.1,0-0.3-0.1-0.4-0.2
			c-0.2-0.2-0.2-0.3-0.2-0.3c0.1-0.6,0-1.6-1.2-2.2c-0.5-0.2-1.2-0.6-2.1-0.5c-0.1-0.6-0.4-1.3-1.4-1.7c-0.1,0-0.2-0.1-0.3-0.1
			c-0.3-0.1-0.7-0.3-1.1-0.4c-0.2,0-0.3-0.1-0.5-0.4c-0.4-0.8-0.9-2-2-2.8l-0.1-0.3c-0.1-0.5-0.2-1.1-0.2-1.5
			c0.1-0.9-0.1-1.6-0.5-2.3c-0.4-0.6-0.7-1.3-0.9-2c-0.3-0.7-0.5-1.4-0.9-2c-0.3-0.5-0.2-1.3-0.1-2.2v-0.4c0-0.2,0.1-0.5,0.2-0.8
			c0.2-0.5,0.4-1,0.4-1.7c0.6-0.9,0.1-1.7-0.1-2.1c0-0.1,0-0.1-0.1-0.2c-0.1-0.3-0.4-0.9-1.1-1.2c0-0.7-0.1-1.3-0.4-1.9
			c-0.3-0.6-0.1-0.8,0.2-1.1c0.7-0.6,0.9-1.5,0.5-2.4c-0.2-0.5-0.5-0.9-0.8-1.3c-0.1-0.1-0.1-0.2-0.2-0.2c0,0,0.1-0.1,0.2-0.2
			c0.1-0.1,0.2-0.1,0.3-0.2c0.6-0.2,1.5-0.7,1.4-2.2c0-0.2,0-0.6,0-0.7c0.7-0.9,0.7-1.9,0.7-2.7s0.1-1.6,0.3-2.3
			c0.1-0.2,0.1-0.5,0.2-0.7c0.2-0.5,0.4-1.1,0.4-1.9c0.3-0.5,0.5-1,0.6-1.5l0.1-0.3c0.3-1.1,0.7-2.5,0.8-3.9c0-0.5,0.1-0.8,0.3-1.1
			c0.5-0.7,0.7-1.6,0.4-2.5c0-0.1,0-0.1,0.1-0.3c1-1.2,1.2-2.5,0.4-3.9c0.2-0.1,0.4-0.2,0.9-0.2c1.3-0.2,2.1-4.3,2-4.8
			c-0.1-0.6,0.1-0.6,0.3-0.8c1-0.5,1.4-1.5,1.1-2.7c0,0,0-0.2,0-0.3c0-0.2,0-0.3,0-0.5v-0.1c0-0.3,0-0.6-0.2-1
			c1.2-0.7,1.3-1.7,1.2-2.4c0.1-0.1,0.1-0.1,0.2-0.2l0.1-0.1l0.4-0.3l0.1-0.5c0-0.2,0.1-0.3,0.1-0.5l0.1-0.2
			c0.1-0.4,0.2-0.8,0.2-1.3l0,0c0-0.1,0-0.2,0-0.2c0-1.1,0.4-2.1,1.2-2.9l0.2-0.2l0.1-0.3c0.8-4,3-8.2,5-11.8
			c0.6-1.2,1.3-2.3,1.8-3.5c0.7-1.5,1.4-3,2.1-4.5c1.4-3.1,2.9-6.4,5-9.3l0.1-0.2c0.1-0.4,0.3-0.8,0.5-1.2l0.1-0.2
			c0.2-0.5,0.4-0.9,0.6-1.4l0.5-1.2h-0.1v-0.2c0-0.2,0.1-0.4,0.1-0.6c0-0.1,0-0.1,0-0.2c0.1,0,0.1-0.1,0.2-0.1
			c0.4-0.3,0.9-0.7,0.8-1.3l-0.1-0.6l-0.3-0.1v-0.1c0.1-0.8,0.1-1.2,0.5-1.5c0.4-0.2,0.6-0.7,0.7-1.1c0.1-0.8,0.5-1.5,0.9-2.1
			c0.2-0.3,0.2-0.6,0.3-0.8c0.2-1.5,0.5-2.4,1.3-3.1c0.1-0.1,0.3-0.3,0.4-0.6c0.1-0.2,0.3-0.6,0.5-0.9c0.4-0.7,0.6-1,0.7-1.4
			c0.1-0.5,0.2-0.9,0.3-1.4c0.1-0.3,0.1-0.6,0.2-0.9s0.2-0.5,0.4-0.6c1-0.6,1.7-2.1,1.5-3.3c0-0.1,0-0.2,0-0.2
			c1-0.4,1.3-1.4,1.4-1.7c0.1-0.3,0.2-0.6,0.3-0.8c0.1-0.2,0.1-0.4,0.2-0.5c0.1-0.2,0.1-0.4,0.2-0.6l0.3-0.9l0,0l0,0l0.2-0.3
			c0.5-0.8,1.1-1.7,1.4-2.7c0.2-0.6,0.5-1.2,0.9-2c0.4-0.7,0.6-1.3,0.6-1.9c0-0.3,0.1-0.5,0.4-0.9c0.4-0.4,0.9-1,1-1.7
			c0.1-0.5,0.4-0.9,0.7-1.5c0.4-0.5,1-1.3,0.8-2.3c0.9-0.5,1.4-1.1,1.8-1.9c0.5-1.2,0.8-2.1,0.9-3.1c0-0.4,0.1-0.5,0.7-0.5
			c0.3,0,0.9,0,1.3-0.5c0.3-0.4,0.6-0.8,0.7-1.4c0.2-0.5,0-1-0.1-1.3v-0.1c-0.1-0.2,0-0.5,0.2-0.6c0.3-0.3,0.5-0.6,0.6-0.8
			c0.1-0.1,0.1-0.3,0.2-0.5c0-0.1,0-0.1,0.1-0.1c0.1-0.1,0.1-0.2,0.2-0.3c0.2-0.3,0.4-0.5,0.6-0.6c0.8-0.4,1.3-1.4,1.6-2.1
			c0.3-0.9,0.7-1.4,1.2-1.7l0.8-0.6l0.6-0.3c0.7,0,1.2-0.4,1.5-1.4c0.1-0.4,0.2-0.9,0.3-1.4V453c0.6,0,1.5-0.2,2-1.3
			c0.4-0.7,0.7-1.1,1.2-1.4s0.9-0.9,0.9-1.5c0-0.1,0-0.1,0-0.2c0.1-0.2,0.2-0.6,0-1.1c0.1-0.1,0.1-0.2,0.2-0.2
			c0.4-0.1,1-0.3,1.7-0.6l0.2-0.1c1-0.4,1.5-1.2,1.6-2.1c0-0.1,0-0.1,0-0.1s0.1,0,0.2-0.1c1.2-0.5,1.9-1.4,2.2-2.7
			c0.2,0.1,0.4,0.1,0.6,0.1l0.6-0.1l0.3-0.4v-0.1l0.7,0.3l0.5-0.7c0.2-0.3,0.2-0.7,0.1-1.1c0.5-0.3,1.1-0.6,1.7-1l0.2-0.1
			c0.3-0.2,0.7-0.4,1-0.9c1.2,0.5,2.3-0.4,3-0.9c0.1-0.1,0.2-0.2,0.3-0.2c0.7-0.3,1.1-0.5,1.4-0.8c0.3-0.2,0.6-0.4,1-0.6
			c0.8-0.4,1.4-0.3,2.1,0.2c0.5,0.4,1,0.9,1.4,1.3c0.5,0.5,0.9,1.1,1.3,1.7l0.5,0.6c0.1,0.1,0.2,0.2,0.3,0.3
			c0.1,0.1,0.3,0.3,0.3,0.4c0.4,1,1,1.8,1.6,2.5c0.3,0.4,0.6,0.7,0.8,1.1c0.8,1.2,3.8,0.7,4.2,0.5c0.5-0.2,0.9-0.2,1.3-0.1
			c2.1,0.6,2.8,0.2,3.7-1.8l0.1-0.1c0,0,0,0,0.1,0c1.1,0,2.2-0.7,2.3-1.9c0.1-1-0.5-2.5-1.1-3.6c-0.2-0.4-0.9-2-1.4-3
			c-0.1-0.3-0.4-0.7-0.6-1.1c-0.2-0.3-0.4-0.6-0.5-0.9c-1.4-3-1.4-3.1-1.5-3.2c-0.7-1.1-1.5-2.3-2.5-3.4c-0.4-0.4-0.8-0.8-1.2-1.3
			c-0.6-0.7-1.2-1.4-1.9-2c-0.2-0.2-0.5-0.5-0.8-0.8c-0.9-1-1.9-2.1-3-2.5c-0.3-0.1-0.9-0.5-1.4-0.9c-0.7-0.5-1.4-1-2.1-1.3
			c-1.3-0.5-3.3-0.8-5.2-0.6c-0.7,0.1-1.1,0.1-1.5,0.2c-0.6,0.1-1,0.2-1.7,0c-1.4-0.2-2.6,0.1-3.4,1c-0.9,1-2.2,1.5-3.6,2.1
			l-0.2,0.1c-0.6,0.2-1.3,0.5-1.8,1.3c-0.1,0.2-0.4,0.3-0.8,0.2c-0.4-0.1-0.8,0-1.3,0.1c-0.3,0.1-0.6,0.3-0.9,0.5l-0.1,0.1
			c-0.3,0.2-0.8,0.6-0.8,1.1l-0.2,0.1c-0.1,0-0.2,0.1-0.2,0.1c-0.5,0.3-1.5,0.8-1.2,1.7c-0.2,0.1-0.4,0.3-0.6,0.4
			c-1,0.5-2.1,1-3.1,1.5c-0.4,0.2-1.3,0.6-1.7,1.7c-0.9,0-1.4,0.5-1.6,0.7s-0.4,0.4-0.7,0.7c-0.3,0.2-0.6,0.4-0.9,0.7l-0.5,0.4
			c-0.8,0.6-0.9,1.3-0.8,1.9l0,0c-0.2,0.2-0.4,0.3-0.6,0.5c-0.1,0.1-0.2,0.2-0.3,0.3l-0.2,0.1c-0.1,0.1-0.3,0.2-0.3,0.3l-0.2,0.1
			c-0.4,0.1-1.1,0.4-1.5,1c-0.5,0.1-1.1,0.4-1.3,1.4v0.1c0,0.1,0,0.3,0,0.2c-0.1,0.2-0.3,0.4-0.4,0.6c-0.3,0.4-0.5,0.7-0.7,0.8
			c-0.4,0.2-0.7,0.5-0.9,0.7l-0.1,0.1c-0.7,0.7-0.7,1.3-0.6,1.8c-0.7,0.3-1,0.9-1.2,1.4c-0.3,0.9-0.7,1.5-1.3,1.9
			c-1.2,0.8-3.4,2.8-4.1,4.8c-0.7,0.5-1,1.3-0.8,2.2c0,0,0,0-0.1,0.1c-0.4,0.3-0.8,0.7-1.1,1.2c-0.2,0.3-0.3,0.6-0.5,0.9
			c-0.2,0.4-0.4,0.7-0.6,0.9c-0.7,0.6-1.2,1.3-1.7,2l-0.3,0.4c-0.4,0.5-0.7,1-1,1.6c-0.2,0.5-0.6,1-1,1.6c-0.1,0.1-0.2,0.3-0.3,0.4
			c-0.2,0.2-0.4,0.4-0.5,0.6c-0.4,0.5-0.7,1.1-1.1,1.6c-0.6,0.9-1.2,1.9-1.9,2.8c-0.4,0.6-0.7,1.2-1,1.8c-0.2,0.3-0.3,0.7-0.5,1
			c-0.2,0.4-0.5,0.8-0.7,1.2c-0.3,0.5-0.6,1-0.9,1.5c-0.1,0.1-0.2,0.2-0.4,0.4c-0.1,0.1-0.2,0.2-0.3,0.3l-0.5,0.6l0.3,0.6
			c0,0.1,0.1,0.1,0.1,0.2l0,0c-0.3,0.6-0.5,1.1-0.8,1.6c-0.4,0.6-0.6,1.1-0.8,1.7c0,0.2-0.1,0.3-0.2,0.5l-0.3,0.7
			c-0.3,0.6-0.5,1.3-0.8,1.9c-0.6,1.3-1.3,2.7-1.9,3.9c-0.5,1-1.1,1.9-1.7,2.8c-0.2,0.4-0.5,0.8-0.7,1.2L291,488
			c-0.7,1.1-1.4,2.3-2,3.4c-0.2,0.3-0.4,0.8-0.4,1.3c0,0.4-0.1,0.7-0.3,1.2c-0.1,0.3-0.3,0.7-0.4,1.1c-1.2,0.6-1.2,1.7-1.2,2
			c0,0.8-0.2,1.3-0.6,1.7c-0.2,0.2-0.5,0.4-0.8,0.6c-1.1,0.7-1.5,1.6-1.1,2.9c0,0.1,0,0.3,0,0.4c-0.2,0.5-0.5,1-0.8,1.4
			c-0.4,0.5-0.9,1.1-1,2c-0.1,0.4-0.1,0.5-0.2,0.6c-1.2,0.5-1.8,1.6-1.7,3c0.1,0.7-0.1,1.2-0.4,1.7c-0.1,0.1-0.3,0.3-0.4,0.4
			c-0.6,0.4-1.5,1.2-1.2,2.2c0,0.1,0,0.1-0.1,0.2c-0.1,0.4-0.3,0.7-0.4,1.1c-0.2,0.6-0.5,1.2-0.7,1.9c-0.2,0.5-0.5,1-0.9,1.3
			c-1,0.7-1,1.6-1,2.2c0,0.3,0,0.5-0.1,0.7c-0.1,0.3-0.2,0.3-0.2,0.4c-0.5,0.2-0.7,0.6-0.9,0.8l-0.4,0.6c-0.4,0.7-0.9,1.4-1.3,2.1
			c-0.2,0.3-0.3,0.6-0.5,0.9c-0.6,1.1-1.3,2.2-1.7,3.4c-0.6,1.5-1,3-1.5,4.5c-0.2,0.8-0.5,1.6-0.8,2.4c-0.4,1.2-0.8,2.5-1.3,3.7
			l-0.4,1.1c0,0.1-0.1,0.3-0.2,0.4c-0.1,0.3-0.2,0.6-0.3,0.9l-0.1,0.2c-0.2,0.6-0.3,1.1-0.6,1.5c-0.3,0.4-0.4,0.9-0.4,1.3
			c0,0.3-0.2,0.6-0.6,1c-0.2,0.3-0.6,0.7-0.7,1.3c-0.1,0.8-0.5,1.6-0.8,2.4c-0.2,0.5-0.4,0.9-0.6,1.4c0,0.1-0.1,0.2-0.2,0.3
			l-0.1,0.2c-0.1,0.1-0.1,0.2-0.2,0.3c-0.2,0.2-0.3,0.5-0.5,0.8c-0.2,0.4-0.3,0.8-0.5,1.2l-0.2,0.4c-0.2,0.5-0.4,1-0.6,1.5
			c-0.5,1.1-1,2.3-1.2,3.6l0,0l-0.1,0.1c-0.2,0.3-0.3,0.6-0.5,1c-0.4,0.7-0.7,1.4-1.1,2.1c-0.3,0.7-0.6,1.3-0.8,2
			c-0.2,0.6-0.5,1.3-0.8,1.9c-0.3,0.7-0.7,1.4-1.1,2c-0.6,0.8-1.1,1.7-1.5,2.6c-0.3,0.7-0.4,1.5-0.6,2.2c-0.2,0.9-0.4,1.7-0.8,2.5
			c-0.1,0.3-0.2,0.5-0.2,0.7v0.1l-0.3,1.1c-0.2,0.7-0.3,1.3-0.5,2c-0.1,0.2-0.1,0.5-0.2,0.7c-0.3,1.1-0.6,2.2-0.4,3.4
			c0.1,0.9,0,1.6-0.4,2.1c-0.9,1.3-0.9,2.8-0.8,4.1c0.1,0.7,0.1,1.4-0.1,1.9c-0.5,1.1-1,2.2-1.4,3.5c-0.3,0.8-0.4,1.5-0.6,2.3
			l-0.1,0.4c-0.1,0.4-0.1,0.8,0.1,1.2c-0.7,0.6-1,1.4-1.1,2.1c0,0.3-0.1,0.5-0.2,0.8c-0.2,0.7-0.4,1.6-0.3,2.5c0,0.2,0,0.4,0.1,0.7
			c0.1,0.8,0.2,1.5-0.1,2.1c-0.2,0.5-0.1,1,0,1.4v0.2c0.1,0.3,0.2,0.6,0.3,0.9l0.3,0.9l0.5,0.2c0,0,0.1,0.1,0,0.5
			c0,0.3,0,0.5,0.1,0.6v0.1v0.1v0.1c-0.3,0.7-0.3,1.5-0.1,2.1v0.1c-0.2,0.5-0.4,1-0.3,1.5c0.1,0.8,0,1.7-0.1,2.5
			c-0.1,0.4,0.1,0.7,0.2,0.9l0.1,0.2l0.2,0.1c0.4,0.2,0.8,0.2,1.1,0.2h0.1c0.1,0.6,0,0.8-0.1,0.9l-0.3,0.4l0.2,0.5
			c0,0.1,0.1,0.3,0.1,0.4c0.1,0.2,0.1,0.3,0.1,0.5c0.1,0.4,0.2,0.9,0.5,1.2c-0.1,0.4-0.1,0.8,0.1,1.2v0.1c0.1,0.4,0.2,1,0.7,1.4
			c0.4,0.3,0.8,0.3,1.2,0.3c0,0,0.1,0,0.1,0.1c0.4,0.3,0.6,0.6,0.6,1.2c0,0.4,0.1,0.7,0.1,1v0.2c0.5,2.5,1.5,4.8,2.5,6.7
			c0.2,0.4,0.6,0.9,1.1,0.9l0.1,0.2c0.3,0.6,0.6,1.1,0.9,1.7c0.2,0.4,0.5,0.8,0.9,1c0.1,0,0.1,0.1,0.1,0.1c0,0.4,0.1,0.8,0.4,1.1
			c0.3,0.4,0.6,0.7,0.9,1.1l0.7,0.8l0.3-0.1v0.3l0.4,0.3c0.1,0,0.1,0.1,0.2,0.1c0.2,0.2,0.5,0.4,0.9,0.5c0.2,0.1,0.3,0.1,0.4,0.6
			v0.6l0.6,0.4c0.1,0.1,0.3,0.2,0.3,0.2c0,0.4,0.2,0.8,0.5,1s0.7,0.4,1.1,0.3c0,0,0.1,0.1,0.1,0.2c1,1.8,2.3,1.9,3.5,1.6l0,0l0,0
			c0.2,0.4,0.6,0.6,0.8,0.8c0.1,0.1,0.3,0.2,0.3,0.3c0.1,0.7,0.8,0.8,1.1,0.9c0.6,0.1,1.2,0.1,1.9,0c0.2,0.2,0.4,0.4,0.7,0.6
			c0.1,0.1,0.2,0.2,0.3,0.3c0.1,0.1,0.3,0.2,0.4,0.3c0.2,0.2,0.5,0.4,0.9,0.5c0.3,0.1,0.6,0.2,0.9,0.3c0.8,0.2,1.6,0.3,2.4,0.5
			l1.1,0.2v0.1l0.2-0.1l0.4,0.1v-0.3l0.5-0.2c0.2-0.1,0.3-0.2,0.5-0.3c0.1,0,0.1-0.1,0.2-0.1c0.3,0,0.5,0,0.7,0c0,0.1,0,0.3,0.1,0.5
			c0.3,0.9,1.2,1.5,2.1,1.3c0.5-0.1,1,0,1.6,0c0.2,0,0.5,0.1,0.7,0.1c0.1,0,0.1,0,0.2,0c0.3,0,0.5,0,0.7-0.1
			c0.5-0.1,0.9-0.2,1.4-0.3c0.2-0.1,0.4-0.1,0.6-0.2l0.5-0.2l-0.1,0.3l1.5-0.3c0.1,0,0.2,0,0.3,0c0.3,0,0.7-0.1,1-0.3
			c0.4-0.3,0.5-0.7,0.5-1c1.1-0.2,2.3-0.5,3.4-0.8c0.2,0,0.3-0.1,0.4-0.2l0.3-0.1c0.2-0.1,0.3-0.1,0.5-0.2c0.2,0,0.5-0.1,0.7-0.1
			c0.4,0,0.7-0.1,1.1-0.2c0.6-0.1,1.3-0.3,1.9-0.5c0.7-0.2,1.3-0.3,2-0.5c0.2,0,0.5-0.1,0.8-0.1c0.2,0,0.4,0,0.5,0h0.6l0.3-0.5l0,0
			h0.1c1,0.3,1.6-0.4,1.8-0.7c0.1-0.1,0.2-0.2,0.2-0.3c0.2,0,0.3,0.1,0.5,0.1c1.1-0.1,2.1-0.6,3-1.1c0,0,0.1,0,0.1-0.1
			c0.4,0.2,0.9,0.3,1.3,0.1c0.3-0.1,0.7-0.4,1-1V647c0.2-0.1,0.3-0.2,0.5-0.3l0.3,0.5l2.8-0.5c0.1,0.1,0.2,0.1,0.3,0.2
			c0.4,0.2,1.3,0.4,1.9,0.1c0.1-0.1,0.2-0.1,0.3-0.2c0.1,0,0.2-0.1,0.2-0.1c1.4-0.2,2.4-1,3.3-1.7c0.7-0.6,1.3-1.2,2-1.8
			c0.2-0.2,0.4-0.4,0.6-0.6l0.8,0.9h0.5c0.7,0,1.1-0.3,1.4-1h0.1c0.1,0.6,0.4,1,1,1.3l0.8,0.4l0.5-0.7c0.1-0.1,0.2-0.3,0.3-0.4
			c0.2-0.3,0.4-0.6,0.6-0.8s0.3-0.5,0.4-0.7h0.2c0.6-0.1,1.2-0.4,1.7-0.6c0.2-0.1,0.5-0.2,0.7-0.3l0.6,1h0.5c1,0.1,1.7-0.4,2-1.3
			c0-0.1,0-0.1,0-0.1s0.1,0,0.2,0c0.9,0.2,1.7-0.2,2.1-1.1c0.2-0.3,0.3-0.5,0.7-0.6c0.4-0.2,1.5-0.6,1.8-1.7l1.5,0.1
			c0.1,0,0.2,0,0.4,0c0.5,0.1,1.1,0.1,1.7-0.3c0.1,0,0.2,0,0.3,0c0.2,0,0.7,0,1-0.4c0.2-0.2,0.5-0.3,0.8-0.5
			c0.3-0.1,0.6-0.3,0.8-0.4c0.4-0.3,0.8-0.4,1.3-0.2c1,0.2,1.5-0.2,1.9-0.7c0.1-0.1,0.4-0.3,0.6-0.4c1-0.6,2-1.2,2.9-2.1l1.9-0.4
			c0.1,0.1,0.1,0.1,0.2,0.2c0.3,0.2,0.8,0.3,1.2,0.2c0.4-0.1,0.8-0.4,0.9-0.8c0.1-0.1,0.1-0.3,0.1-0.4l3.9-2.6v-0.4
			c0-0.1,0-0.3,0-0.6c0-0.1,0-0.2,0-0.2l0.2,0.3l0.7-0.1c0.6-0.1,1-0.3,1.1-0.6c0.2-0.2,0.3-0.5,0.3-1l0,0c1.4,0.6,4.1-1.5,4.1-1.5
			l0.6-0.6l-0.2-0.3c0.1-0.1,0.1-0.1,0.2-0.2c0.4-0.3,0.6-0.6,0.9-0.7c0.4,0.3,1,0.4,1.4,0.2l0.8-0.3l-0.1-0.4
			c0.1,0.1,0.3,0.1,0.5,0.1c0.4,0.1,0.7-0.1,0.8-0.2l0.7-0.3v-0.6c0.3-0.1,0.5-0.4,0.7-0.7l0.2,0.1l0.4-0.2c0.7-0.4,1.3-2.2,1.4-2.5
			l0,0c0.1,0,0.2,0,0.3,0c0.5,0,1.1-0.3,1.6-0.7c0.4,0.6,1.1,0.6,2.7,0.1c0.3-0.1,1.2-0.4,1.5-1.5v-0.1l0,0c1.2,0,2.8-1.7,3.2-2.2
			c0.1-0.2,0.3-0.4,0.4-0.5c0.2-0.1,0.9-0.4,1.2-0.4c0.2,0,0.3-0.1,0.3-0.1c0.8-0.1,1.5-0.5,2.2-1c0.2,0,0.5,0,0.8,0
			c0.4-0.1,1.9-0.3,2.4-1.4h0.1c0.2-0.1,0.4-0.3,0.7-0.4c0.7,0,1.5-0.3,1.8-0.7c0,0,0,0,0.1-0.1c0.7-0.1,1.1-0.7,1.3-1.1
			c0.1-0.1,0.4-0.2,0.5-0.2c0.4,0.2,0.7,0.2,1,0.1c0.5-0.2,0.8-0.6,0.9-0.9c0.3,0,0.6-0.1,0.9-0.3s0.4-0.5,0.6-0.7l0.3-0.1
			c0.7-0.2,1.3-0.5,1.9-0.7s0.9-0.6,1.1-1.2c0.2,0,0.4,0,0.6-0.1c0.5-0.2,0.9-0.5,1.3-1c0.8-0.1,1.5-0.6,2-1.4l0,0h0.1l0.6,0.2
			l0.4-0.5c0.1-0.1,0.2-0.2,0.3-0.3c0.3-0.3,0.5-0.5,0.7-0.6c0.4-0.1,0.6-0.4,0.7-0.6c0.2-0.3,0.4-0.3,0.6-0.3c1.1,0,1.7-0.6,2-1
			c0,0,0.1-0.1,0.2-0.2l0.2-0.2c0.3-0.3,0.7-0.6,1-0.9l0.3-0.3c0.8-0.2,1.8-1,2.1-1.4c0.1-0.1,0.1-0.2,0.1-0.2
			c1.1,0.2,1.7-0.6,1.9-0.9l0.1-0.1c0-0.1,0.1-0.1,0.1-0.2c0.5-0.2,0.9-0.5,1.1-0.8c1.2,0,1.6-0.4,1.9-1.5c0.5,0,1.1-0.1,1.5-0.9
			l0.3-0.6l-0.4-0.5C424.3,589.4,424.2,589.2,424.6,588.7z"/>
	</g>
</g>
</svg>
